/* XPM */
static char *_3d34c290918476197f4c0597c983e09S5OBx146l4iouGOI[] = {
/* columns rows colors chars-per-pixel */
"128 128 89 1 ",
"  c #000000",
". c #0B0000",
"X c #0C0C0C",
"o c #130000",
"O c #1A0000",
"+ c #131313",
"@ c #1D1D1D",
"# c #230000",
"$ c #2C0000",
"% c #340000",
"& c #3B0000",
"* c #242424",
"= c #2C2C2C",
"- c #333333",
"; c #3B3B3B",
": c #440000",
"> c #4C0000",
", c #530000",
"< c #5C0000",
"1 c #640000",
"2 c #6C0000",
"3 c #730000",
"4 c #7C0000",
"5 c #444444",
"6 c #4B4B4B",
"7 c #535353",
"8 c #5B5B5B",
"9 c #646464",
"0 c #6C6C6C",
"q c #747474",
"w c #7C7C7C",
"e c #830000",
"r c #8C0000",
"t c #930000",
"y c #9C0000",
"u c #A30000",
"i c #AC0000",
"p c #B40000",
"a c #BC0000",
"s c #C30000",
"d c #CC0000",
"f c #D30000",
"g c #DC0000",
"h c #E50000",
"j c #EB0000",
"k c #F40000",
"l c #FC0000",
"z c red",
"x c gray51",
"c c #848484",
"v c gray52",
"b c #898989",
"n c #8C8C8C",
"m c #909090",
"M c gray59",
"N c #9A9A9A",
"B c #9B9B9B",
"V c #A2A2A2",
"C c #A5A5A5",
"Z c gray67",
"A c #ACACAC",
"S c #AFAFAF",
"D c #B3B3B3",
"F c #B6B6B6",
"G c gray73",
"H c #BBBBBB",
"J c gray75",
"K c #C3C3C3",
"L c #C5C5C5",
"P c gray78",
"I c #C8C8C8",
"U c #CDCDCD",
"Y c #D2D2D2",
"T c gray83",
"R c #DADADA",
"E c #DCDCDC",
"W c #DFDFDF",
"Q c #E1E1E1",
"! c gray89",
"~ c gray90",
"^ c gray92",
"/ c #ECECEC",
"( c #EFEFEF",
") c gray95",
"_ c #F3F3F3",
"` c #F4F4F4",
"' c gray98",
"] c #FEFEFE",
"[ c white",
/* pixels */
"zzzzzzzzzzzzzzzzzzzzzzzzzzzzzzzzzzzzzzzzzzzzzzzzzzzzzzzzzzzzzzzzzzzzzzzzzzzzzzzzzzzzzzzzzzzzzzzzzzzzzzzzzzzzzzzzzzzzzzzzzzzzzzzz",
"z2OOOOOOOOOOoOOOOoOoOOoooOoOooooooooooooo.oooo.oo..o.oo.o...o...................... .. ..  ..  .. .  ..        .              .z",
"z2                                                                                                                            .z",
"z2                                                                                                                            .z",
"z2                                                                                                                            .z",
"z2   thhhhhhhhhhhhhhjjjhhjjhhjjjjjjjjjjjjjjjjkkjkjkjkjjkkjkjkkkkkkkkkkkkkkkkkkkkkkzkkkzkkzklkzklzkzkzllzllzlzzzlzzzzzzlzzzk   .z",
"z2   tzzzzzzzzzzzzzzzzzzzzzzzzzzzzzzzzzzzzzzzzzzzzzzzzzzzzzzzzzzzzzzzzzzzzzzzzzzzzzzzzzzzzzzzzzzzzzzzzzzzzzzzzzzzzzzzzzzzzz   .z",
"z2   tzzzzzzzzzzzzzzzzzzzzzzzzzzzzzzzzzzzzzzzzzzzzzzzzzzzzzzzzzzzzzzzzzzzzzzzzzzzzzzzzzzzzzzzzzzzzzzzzzzzzzzzzzzzzzzzzzzzzk    z",
"z2   tzzzzzzzzzzzzzzzzzzzzzzzzzzzzzzzzzzzzzzzzzzzzzzzzzzzzzzzzzzzzzzzzzzzzzzzzzzzzzzzzzzzzzzzzzzzzzzzzzzzzzzzzzzzzzzzzzzzzz   .z",
"z2   tzzzzzzzzzzzzzzzzzzzzzzzzzzzzzzzzzzzzzzzzzzzzzzzzzzzzzzzzzzzzzzzzzzzzzzzzzzzzzzzzzzzzzzzzzzzzzzzzzzzzzzzzzzzzzzzzzzzzk   .z",
"z2   tzzzzzzzzzzzzzzzzzzzzzzzzzzzzzzzzzzzzzzzzzzzzzzzzzzzzzzzzzzzzzzzzzzzzzzzzzzzzzzzzzzzzzzzzzzzzzzzzzzzzzzzzzzzzzzzzzzzzk    z",
"z2   tzzzzzzzzzzzzzzzzzzzzzzzzzzzzzzzzzzzzzzzzzzzzzzzzzzzzzzzzzzzzzzzzzzzzzzzzzzzzzzzzzzzzzzzzzzzzzzzzzzzzzzzzzzzzzzzzzzzzk   .z",
"z2   tzzzzzzzzzzzzzzzzzzzzzzzzzzzzzzzzzzzzzzzzzzzzzzzzzzzzzzzzzzzzzzzzzzzzzzzzzzzzzzzzzzzzzzzzzzzzzzzzzzzzzzzzzzzzzzzzzzzzk   .z",
"z2   tzzzzzzzzzzzzzzzzzzzzzzzzzzzzzzzzzzzzzzzzzzzzzzzzzzzzzzzzzzzzzzzzzzzzzzzzzzzzzzzzzzzzzzzzzzzzzzzzzzzzzzzzzzzzzzzzzzzzz    z",
"z2   tzzzzzzzzzzzzzzzzzzzzzzzzzzzzzzzzzzzzzzzzzzzzzzzzzzzzzzzzzzzzzzzzzzzzzzzzzzzzzzzzzzzzzzzzzzzzzzzzzzzzzzzzzzzzzzzzzzzzz   .z",
"z2   tzzzzzzzzzzzzzzzzzzzzzzzzzzzzzzzzzzzzzzzzzzzzzzzzzzzzzzzzzzzzzzzzzzzzzzzzzzzzzzzzzzzzzzzzzzzzzzzzzzzzzzzzzzzzzzzzzzzzk   .z",
"z2   tzzzzzzzzzzzzzzzzzzzzzzzzzzzzzzzzzzzzzzzzzzzzzzzzzzzzzzzzzzzzzzzzzzzzzzzzzzzzzzzzzzzzzzzzzzzzzzzzzzzzzzzzzzzzzzzzzzzzk    z",
"z2   tzzzzzzzzzzzzzzzzzzzzzzzzzzzzzzzzzzzzzzzzzzzzzzzzzzzzzzzzzzzzzzzzzzzzzzzzzzzzzzzzzzzzzzzzzzzzzzzzzzzzzzzzzzzzzzzzzzzzz   .z",
"z2   tzzzzzzzzzzzzzzzzzzzzzzzzzzzzzzzzzzzzzzzzzzzzzzzzzzzzzzzzzzzzzzzzzzzzzzzzzzzzzzzzzzzzzzzzzzzzzzzzzzzzzzzzzzzzzzzzzzzzk    z",
"z2   rzzzzzzzzzzzzzzzzzzzzzzzzzzzzzzzzzzzzzzzzzzzzzzzzzzzzzzzzzzzzzzzzzzzzzzzzzzzzzzzzzzzzzzzzzzzzzzzzzzzzzzzzzzzzzzzzzzzzl   .z",
"z2   tzzzzzzzzzzzzzzzzzzzzzzzzzzzzzzzzzzzzzzzzzzzzzzzzzzzzzzzzzzzzzzzzzzzzzzzzzzzzzzzzzzzzzzzzzzzzzzzzzzzzzzzzzzzzzzzzzzzzz    z",
"z2   tzzzzzzzzzzzzzzzzzzzzzzzzzzzzzzzzzzzzzzzzzzzzzzzzzzzzzzzzzzzzzzzzzzzzzzzzzzzzzzzzzzzzzzzzzzzzzzzzzzzzzzzzzzzzzzzzzzzzk    z",
"z2   rzzzzzzzzzzzzzzzzzzzzzzzzzzzzzzzzzzzzzzzzzzzzzzzzzzzzzzzzzzzzzzzzzzzzzzzzzzzzzzzzzzzzzzzzzzzzzzzzzzzzzzzzzzzzzzzzzzzzz   .z",
"z3   tzzzzzzzzzzzzzzzzzzzzzzzzzzzzzzzzzzzzzzzzzzzzzzzzzzzzzzzzzzzzzzzzzzzzzzzzzzzzzzzzzzzzzzzzzzzzzzzzzzzzzzzzzzzzzzzzzzzzz    z",
"z2   rzzzzzzzzzzzzzzzzzzzzzzzzzzzzzzzzzzzzzzzzzzzzzzzzzzzzzzzzzzzzzzzzzzzzzzzzzzzzzzzzzzzzzzzzzzzzzzzzzzzzzzzzzzzzzzzzzzzzk    z",
"z3   tzzzzzzzzzzzzzzzzzzzzzzzzzzzzzzzzzzzzzzzzzzzzzzzzzzzzzzzzzzzzzzzzzzzzzzzzzzzzzzzzzzzzzzzzzzzzzzzzzzzzzzzzzzzzzzzzzzzzz    z",
"z2   tzzzzzzzzzzzzzzzzzzzzzzzzzzzzzzzzzzzzzzzzzzzzzzzzzzzzzzzzzzzzzzzzzzzzzzzzzzzzzzzzzzzzzzzzzzzzzzzzzzzzzzzzzzzzzzzzzzzzl   .z",
"z3   rzzzzzzzzzzzzzzzzzzzzzzzzzzzzzzzzzzzzzzzzzzzzzzzzzzzzzzzzzzzzzzzzzzzzzzzzzzzzzzzzzzzzzzzzzzzzzzzzzzzzzzzzzzzzzzzzzzzzl    z",
"z2   tzzzzzzzzzzzzzzzzzzzzzzzzzzzzzzzzzzzzzzzzzzzzzzzzzzzzzzzzzzzzzzzzzzzzzzzzzzzzzzzzzzzzzzzzzzzzzzzzzzzzzzzzzzzzzzzzzzzzz    z",
"z3   rzzzzzzzzzzzzzzzzzzzzzzzzzzzzzzzzzzzzzzzzzzzzzzzzzzzzzzzzzzzzzzzzzzzzzzzzzzzzzzzzzzzzzzzzzzzzzzzzzzzzzzzzzzzzzzzzzzzzl    z",
"z3   tzzzzzzzzzzzzzzzzzzzzzzzzzzzzzzzzzzzzzzzzzzzzzzzzzzzzzzzzzzzzzzzzzzzzzzzzzzzzzzzzzzzzzzzzzzzzzzzzzzzzzzzzzzzzzzzzzzzzz   .z",
"z2   rzzzzzzzzzzzzzzzzzzzzzzzzzzzzzzzzzzzzzzzzzzzzzzzzzzzzzzzzzzzzzzzzzzzzzzzzzzzzzzzzzzzzzzzzzzzzzzzzzzzzzzzzzzzzzzzzzzzzz    z",
"z3   rzzzzzzzzzzzzzzzzzzzzzzzzzzzzzzzzzzzzzzzzzzzzzzzzzzzzzzzzzzzzzzzzzzzzzzzzzzzzzzzzzzzzzzzzzzzzzzzzzzzzzzzzzzzzzzzzzzzzl    z",
"z3   tzzzzzzzzzzzzzzzzzzzzzzzzzzzzzzzzzzzzzzzzzzzzzzzzza1&%:efzzzzzzzzzzzzzzzzzzzksy2:>,<23epzzzzzzzzzzzzzzzzzzzzzzzzzzzzzz    z",
"z3   rzzzzzzzzzzzzzzzzzzzd4Oo$>izzzzzzzzzzzzzzzzzzzzzh>       4zzzzzzzzzzzzzzzzr$             >rfzzzzzzzzzzzzzzzzzzzzzzzzzz    z",
"z3   rzzzzzzzzzzzzzzzzzz3       &pzzzzzzzzzzzzzzzzzzh#         <zzzzzzzzzzzzzp&                  %uzzzzzzzzzzzzzzzzzzzzzzzl    z",
"z2   rzzzzzzzzzzzzzzzzz<         Ogzzzzzzzzzzzzzzzzz:           ezzzzzzzzzzh2         X@*;w9*      <dzzzzzzzzzzzzzzzzzzzzzz    z",
"z3   rzzzzzzzzzzzzzzzzu           %zzzzzzzzzzzzzzzzu    6cJM5    jzzzzzzzzg$   ;K^~Q/'[[[[[[[x      .ekzzzzzzzzzzzzzzzzzzzl    z",
"z3   rzzzzzzzzzzzzzzzz%            ezzzzzzzzzzzzzzz,   */[[[[q   tzzzzzzzh%   w[[[[[[[[[[[[[[[D+      %gzzzzzzzzzzzzzzzzzzz    z",
"z3   rzzzzzzzzzzzzzzza     X;5     .hzzzzzzzzzzzzzzO   D[[[[[[   2zzzzzzk:   0[[[[[[[[[[[[[[[[[E5      &hzzzzzzzzzzzzzzzzzz    z",
"z3   rzzzzzzzzzzzzzzzt    w)[[U7    3zzzzzzzzzzzzzz.  X'[[[[[[   <zzzzzz>  +P[[[[[[[[[[[[[[[[[[[[q      :zzzzzzzzzzzzzzzzzz    z",
"z3   rzzzzzzzzzzzzzzz1   0[[[[[[7    szzzzzzzzzzzzz   5[[[[[[[   1zzzzz1  8[[[[[[[[[[[[[[[[[[[[[[[V      ,zzzzzzzzzzzzzzzzz    z",
"z3   rzzzzzzzzzzzzzzz<   Q[[[[[[P    ,zzzzzzzzzzzzh   c[[[[[[[   3zzzzp  .'[[[[[[[[[[[[[[[[[[[[[[[[T;     uzzzzzzzzzzzzzzzz    z",
"z3   rzzzzzzzzzzzzzzz4   [[[[[[[[w    uzzzzzzzzzzzg   N[[[[[[b   ezzzz:  V[[[[[[[[[[[[[[[[[[[[[[[[[[[c    &zzzzzzzzzzzzzzzl    z",
"z3   rzzzzzzzzzzzzzzzt   ~[[[[[[[/=   %zzzzzzzzzzzd   S[[[['8[   tzzzt   ~[[[[[[[[['QYPFZH)[[[[[[[[[[[6    tzzzzzzzzzzzzzzz    z",
"z3   rzzzzzzzzzzzzzzzr   m[[[[[[[[C    rzzzzzzzzzza   P[[[[[[[   uzzh#  6[[[[[[[[[n       @H[[[[[[[[[[P    #hzzzzzzzzzzzzzz    z",
"z3   rzzzzzzzzzzzzzzze   *^[[[[[[[[8   Ogzzzzzzzzzi   ^[[[[[[`   pzz3   F[[[[[[[[9          n[[[[[[[[[[8    tzzzzzzzzzzzzzz    z",
"z3   rzzzzzzzzzzzzzzz4   0[[[[[[[[[YX   2zzzzzzzzzy  X[[[[[[[~   azg   ;[[[[[[[[x    O&$o    8'[[[[[[[[U    >zzzzzzzzzzzzzz    z",
"z3   rzzzzzzzzzzzzzzz4  +[[[[[[[[[[[c    szzzzzzzzr  =[[[[[[[T   fzt   P[[[[[[[Q    ezzzzkar$ =Q[[[[[[[[8    hzzzzzzzzzzzzz    z",
"z3   rzzzzzzzzzzzzzzz3  7[[[[[[[[[[[';   >zzzzzzzze  6[[[[[[[K   gz>  8[[[[[[[[w   uzzzzzzzzk4  R[[[[[[[T    yzzzzzzzzzzzzz    z",
"z3   rzzzzzzzzzzzzzzz2  9[[[[[[[[[[[[D    uzzzzzzz3  8[[[[[[[Z   jh   Y[[[[[[[`X  >zzzzzzzzzzz: 9[[[[[[[[9   <zzzzzzzzzzzzz    z",
"z3   rzzzzzzzzzzzzzzz1  q[[[[[[[[[[[[[9   $kzzzzzz1  0[[[[[[[m   zy   '[[[[[[[n   izzzzzzzzzzzp  T[[[[[[[E   .hzzzzzzzzzzzz    z",
"z3   rzzzzzzzzzzzzzzz1  w[[[[[[[[[[[[[R+   4zzzzzz,  w[[[[[[[q  .z:   [[[[[[[[*  &zzzzzzzzzzzzz> 8[[[[[[[[x   izzzzzzzzzzzz    z",
"z3   rzzzzzzzzzzzzzzz<  b[[[[[[[[[[[[[[m   .fzzzzz:  n[[[[[[[8  Oz    '[[[[[[`   rzzzzzzzzzzzzzp  U[[[[[[['   2zzzzzzzzzzzz    z",
"z3   ezzzzzzzzzzzzzzz,  N[[[[[[[[[[[[[[[5   <zzzzz%  V[[[[[[[5  $g    [[[[[[[R   dzzzzzzzzzzzzzk. 8[[[[[[[[V  %zzzzzzzzzzzz    z",
"z3   rzzzzzzzzzzzzzzz>  V[[[[[[[[[[[[[[[H    izzzz#  D[[[[[[[*  &a   X[[[[[[[K  $zzzzzzzzzzzzzzz&  Y[[[[[[[Q   gzzzzzzzzzzz    z",
"z4   rzzzzzzzzzzzzzzz>  D[[[[[[[H[[[[[[[[9   &zzzzO  P[[[[[[[X  >y   *[[[[[[[D  1zzzzzzzzzzzzzzz4  0[[[[[[[)   uzzzzzzzzzzz    z",
"z3   ezzzzzzzzzzzzzzz:  H[[[[[[[5[[[[[[[[YX   rzzz   E[[[[[[`   <e   =[[[[[[[V  pzzzzzzzzzzzzzzza   [[[[[[[)   <zzzzzzzzzzz    z",
"z3   rzzzzzzzzzzzzzzz&  I[[[[[[[ b[[[[[[[[x   Ogzz   )[[[[[[W   11   5[[[[[[[m  zzzzzzzzzzzzzzzzk   E[[[[[[[+  Ozzzzzzzzzzz    z",
"z3   rzzzzzzzzzzzzzzz%  T[[[[[[' +R[[[[[[[/=   2zh  .[[[[[[[I   3>   7[[[[[[[c  zzzzzzzzzzzzzzzzz#  S[[[[[[[;   fzzzzzzzzzz    z",
"z3   rzzzzzzzzzzzzzzz%  Q[[[[[[/  9[[[[[[[[N    sg  @[[[[[[[D   r:   w[[[[[[[C  zzzzzzzzzzzzzzzzz<  x[[[[[[[9   izzzzzzzzzz    z",
"z4   ezzzzzzzzzzzzzzz$  /[[[[[[Q   H[[[[[[[[5   ,d  -[[[[[[[N   t,   M[[[[[[[H  zzzzzzzzzzzzzzzzzr  7[[[[[[[n   tzzzzzzzzzz    z",
"z4   ezzzzzzzzzzzzzzz#  '[[[[[[Y   5[[[[[[[[H    e  6[[[[[[[b   u<   w[[[[[[[P  zzzzzzzzzzzzzzzzza  -[[[[[[[F   4zzzzzzzzzz    z",
"z3   rzzzzzzzzzzzzzzzO .[[[[[[[P    N[[[[[[[[9   $  8[[[[[[[q   p1   *[[[[[[[Y  zzzzzzzzzzzzzzzzzf  .[[[[[[[E   2zzzzzzzzzz    z",
"z4   rzzzzzzzzzzzzzzzO +[[[[[[[H    */[[[[[[[YX     q[[[[[[[8   s2    )[[[[[[/  zzzzzzzzzzzzzzzzzj   E[[[[[[[   >zzzzzzzzzz    z",
"z3   ezzzzzzzzzzzzzzzo @[[[[[[[S     q[[[[[[[[x     b[[[[[[[5   f3    I[[[[[[[+ pzzzzzzzzzzzzzzzzz   D[[[[[[[   &zzzzzzzzzz    z",
"z3   rzzzzzzzzzzzzzzz. =[[[[[[[V     .U[[[[[[[)=    N[[[[[[[-   h4    S[[[[[[[= 2zzzzzzzzzzzzzzzzzO  N[[[[[[[   Ozzzzzzzzzz    z",
"z4   ezzzzzzzzzzzzzzz  ;[[[[[[[M   O  7[[[[[[[[N    S[[[[[[[@   ks    n[[[[[[[6 %zzzzzzzzzzzzzzzzz%  N[[[[[[[   .zzzzzzzzzz    z",
"z3   rzzzzzzzzzzzzzzl  5[[[[[[[b   >   C[[[[[[[[5   K[[[[[[[X   zz    0[[[[[[[0  gzzzzzzzzzzzzzzzz%  C[[[[[[[   ozzzzzzzzzz    z",
"z4   ezzzzzzzzzzzzzzz  7[[[[[[[w   22  ;'[[[[[[[D   Y[[[[[['   ozz:   7[[[[[[[b  yzzzzzzzzzzzzzzzz#  K[[[[[[[   #zzzzzzzzzz    z",
"z3   rzzzzzzzzzzzzzzk  8[[[[[[[q   3f.  c[[[[[[[[8  ~[[[[[[~   Ozze   -[[[[[[[Z  ,zzzzzzzzzzzzzzzzo  ^[[[[[[[   &zzzzzzzzzz    z",
"z4   ezzzzzzzzzzzzzzj  0[[[[[[[9   4z4  +E[[[[[[[I  '[[[[[[Y   %zza   +[[[[[[[Q   dzzzzzzzzzzzzzzz  *[[[[[[[U   ,zzzzzzzzzz    l",
"z4   ezzzzzzzzzzzzzzh  q[[[[[[[8   4zh#  0[[[[[[[[qX[[[[[[[K   &zzk.   [[[[[[['   2zzzzzzzzzzzzzzh  7[[[[[[[N   1zzzzzzzzzz    z",
"z3   ezzzzzzzzzzzzzzh  x[[[[[[[6   ezzr   J[[[[[[[Q;[[[[[[[S   >zzz>   '[[[[[[[7  ohzzzzzzzzzzzzzf  x[[[[[[[0   4zzzzzzzzzz.   z",
"z4   rzzzzzzzzzzzzzzg  n[[[[[[[5   rzzz%  6[[[[[[[[N[[[[[[[N   <zzz4   ^[[[[[[[H   rzzzzzzzzzzzzzs  F[[[[[[[;   tzzzzzzzzzz    z",
"z4   ezzzzzzzzzzzzzzf  N[[[[[[[-   tzzzy   V[[[[[[['[[[[[[[b   2zzzg.  B[[[[[[[[-  $zzzzzzzzzzzzzt  Q[[[[[[[X   uzzzzzzzzzz    l",
"z4   ezzzzzzzzzzzzzzd  C[[[[[[[=   yzzzz:  -`[[[[[[[[[[[[[[q   4zzzz1   )[[[[[[[M   ezzzzzzzzzzzz1 @[[[[[[[T    azzzzzzzzzz    z",
"z4   ezzzzzzzzzzzzzzd  D[[[[[[[@   yzzzza   c[[[[[[[[[[[[[[8   rzzzzs   q[[[[[[[[+   azzzzzzzzzzz% 6[[[[[[[Z    hzzzzzzzzzz.   l",
"z4   ezzzzzzzzzzzzzzs  J[[[[[[[X   uzzzzz<  +E[[[[[[[[[[[[[5   yzzzzz>  +'[[[[[[[q   :zzzzzzzzzzk. w[[[[[[[q   Ozzzzzzzzzzz    z",
"z4   ezzzzzzzzzzzzzza  I[[[[[[[.   uzzzzzd   0[[[[[[[[[[[[[;   uzzzzzu   M[[[[[[[E    ezzzzzzzzzs  Y[[[[[[[5   <zzzzzzzzzzz    l",
"z3   ezzzzzzzzzzzzzzp  T[[[[[[`    izzzzzz3   J[[[[[[[[[[[[@   azzzzzz%  -[[[[[[[[7    yzzzzzzzt. +[[[[[[[[+   tzzzzzzzzzzz    z",
"z4   ezzzzzzzzzzzzzzi  Q[[[[[[/    pzzzzzzhO  6[[[[[[[[[[[[.   szzzzzzr   F[[[[[[[H     azzzza,   m[[[[[[[[    szzzzzzzzzzz    z",
"z4   ezzzzzzzzzzzzzzi  )[[[[[[E    azzzzzzzr   D[[[[[[[[[[/    fzzzzzzh#  7[[[[[[[[;    Ofzs1    =[[[[[[[[^   okzzzzzzzzzzz.   z",
"z4   ezzzzzzzzzzzzzzu  '[[[[[[T    szzzzzzzk$  6[[[[[[[[[[Q    hzzzzzzzy   R[[[[[[[)8    .>      S[[[[[[[[n   <zzzzzzzzzzzz    k",
"z4   ezzzzzzzzzzzzzzy X[[[[[[[P    szzzzzzzzy   Z[[[[[[[[[P    kzzzzzzzz<  q[[[[[[[[[F-       X5S[[[[[[[[Q    uzzzzzzzzzzzz.   z",
"z4   ezzzzzzzzzzzzzzt +[[[[[[[H    dzzzzzzzzz:  5[[[[[[[[[F    zzzzzzzzzgO X'[[[[[[[[[[b.  ;wH[[[[[[[[[[[=   ojzzzzzzzzzzzz    k",
"z4   ezzzzzzzzzzzzzzt .[[[[[[[N    fzzzzzzzzzp   C[[[[[[[[S   ozzzzzzzzzzt  C[[[[[[[[[[[^U)[[[[[[[[[[[[[n    3zzzzzzzzzzzzz.   z",
"z4   ezzzzzzzzzzzzzzt  D[[[[[[8    gzzzzzzzzzz<  ;[[[[[[[[I   ozzzzzzzzzzz, -[[[[[[[[[[[[[[[[[[[[[[[[[[/+   $kzzzzzzzzzzzzz    k",
"z4   ezzzzzzzzzzzzzzp  *P'[[[M     zzzzzzzzzzzd   C[[[[[[[~   Ozzzzzzzzzzzf. S[[[[[[[[[[[[[[[[[[[[[[[[[0    izzzzzzzzzzzzzz    z",
"z4   ezzzzzzzzzzzzzzz.   ;88=     >zzzzzzzzzzzz4  ;[[[[[[[)   .zzzzzzzzzzzzy  c/[[[[[[[[[[[[[[[[[[[[[[[    rzzzzzzzzzzzzzzz.   l",
"z4   ezzzzzzzzzzzzzzz4            azzzzzzzzzzzzg   N[[[[[[P   #zzzzzzzzzzzzzy   9Q[[[[[[[[[[[[[[[[[[[[M   uzzzzzzzzzzzzzzzz.   k",
"z4   ezzzzzzzzzzzzzzzz&          3zzzzzzzzzzzzzzO  XK[[[[[;   >zzzzzzzzzzzzzk%   Xb[[[[[[[[[[[[[[[[)R8  Opzzzzzzzzzzzzzzzzz    z",
"z4   ezzzzzzzzzzzzzzzzj>        3zzzzzzzzzzzzzzz4   *CE^D;    yzzzzzzzzzzzzzza     -F[[[[[[[[[[Pc6.    :dzzzzzzzzzzzzzzzzzz.   k",
"z4   ezzzzzzzzzzzzzzzzzzt$    :pzzzzzzzzzzzzzzzzzO           $zzzzzzzzzzzzzzzze      8E[[[[Qm7+      $yzzzzzzzzzzzzzzzzzzzz.   z",
"z4   ezzzzzzzzzzzzzzzzzzzzhddkzzzzzzzzzzzzzzzzzzzp          .zzzzzzzzzzzzzzzzzzr      XqFZ6        .4kzzzzzzzzzzzzzzzzzzzzz    k",
"z4   ezzzzzzzzzzzzzzzzzzzzzzzzzzzzzzzzzzzzzzzzzzzzaO       &zzzzzzzzzzzzzzzzzzzzy                .2fzzzzzzzzzzzzzzzzzzzzzzz.   z",
"z4   ezzzzzzzzzzzzzzzzzzzzzzzzzzzzzzzzzzzzzzzzzzzzzz3#. .%tzzzzzzzzzzzzzzzzzzzzzzp:            $ehzzzzzzzzzzzzzzzzzzzzzzzzz.   k",
"z4   ezzzzzzzzzzzzzzzzzzzzzzzzzzzzzzzzzzzzzzzzzzzzzzzzzzzzzzzzzzzzzzzzzzzzzzzzzzzzzu%        :yzzzzzzzzzzzzzzzzzzzzzzzzzzzz.   k",
"z4   ezzzzzzzzzzzzzzzzzzzzzzzzzzzzzzzzzzzzzzzzzzzzzzzzzzzzzzzzzzzzzzzzzzzzzzzzzzzzzzzgptrypfhzzzzzzzzzzzzzzzzzzzzzzzzzzzzzz    z",
"z4   ezzzzzzzzzzzzzzzzzzzzzzzzzzzzzzzzzzzzzzzzzzzzzzzzzzzzzzzzzzzzzzzzzzzzzzzzzzzzzzzzzzzzzzzzzzzzzzzzzzzzzzzzzzzzzzzzzzzzz.   k",
"ze   ezzzzzzzzzzzzzzzzzzzzzzzzzzzzzzzzzzzzzzzzzzzzzzzzzzzzzzzzzzzzzzzzzzzzzzzzzzzzzzzzzzzzzzzzzzzzzzzzzzzzzzzzzzzzzzzzzzzzz    k",
"z4   ezzzzzzzzzzzzzzzzzzzzzzzzzzzzzzzzzzzzzzzzzzzzzzzzzzzzzzzzzzzzzzzzzzzzzzzzzzzzzzzzzzzzzzzzzzzzzzzzzzzzzzzzzzzzzzzzzzzzz.   k",
"z4   ezzzzzzzzzzzzzzzzzzzzzzzzzzzzzzzzzzzzzzzzzzzzzzzzzzzzzzzzzzzzzzzzzzzzzzzzzzzzzzzzzzzzzzzzzzzzzzzzzzzzzzzzzzzzzzzzzzzzz.   k",
"ze   4zzzzzzzzzzzzzzzzzzzzzzzzzzzzzzzzzzzzzzzzzzzzzzzzzzzzzzzzzzzzzzzzzzzzzzzzzzzzzzzzzzzzzzzzzzzzzzzzzzzzzzzzzzzzzzzzzzzzz.   z",
"ze   ezzzzzzzzzzzzzzzzzzzzzzzzzzzzzzzzzzzzzzzzzzzzzzzzzzzzzzzzzzzzzzzzzzzzzzzzzzzzzzzzzzzzzzzzzzzzzzzzzzzzzzzzzzzzzzzzzzzzz.   k",
"z4   4zzzzzzzzzzzzzzzzzzzzzzzzzzzzzzzzzzzzzzzzzzzzzzzzzzzzzzzzzzzzzzzzzzzzzzzzzzzzzzzzzzzzzzzzzzzzzzzzzzzzzzzzzzzzzzzzzzzzz.   k",
"z4   ezzzzzzzzzzzzzzzzzzzzzzzzzzzzzzzzzzzzzzzzzzzzzzzzzzzzzzzzzzzzzzzzzzzzzzzzzzzzzzzzzzzzzzzzzzzzzzzzzzzzzzzzzzzzzzzzzzzzz.   k",
"ze   4zzzzzzzzzzzzzzzzzzzzzzzzzzzzzzzzzzzzzzzzzzzzzzzzzzzzzzzzzzzzzzzzzzzzzzzzzzzzzzzzzzzzzzzzzzzzzzzzzzzzzzzzzzzzzzzzzzzzz.   k",
"ze   4zzzzzzzzzzzzzzzzzzzzzzzzzzzzzzzzzzzzzzzzzzzzzzzzzzzzzzzzzzzzzzzzzzzzzzzzzzzzzzzzzzzzzzzzzzzzzzzzzzzzzzzzzzzzzzzzzzzzz.   k",
"z4   ezzzzzzzzzzzzzzzzzzzzzzzzzzzzzzzzzzzzzzzzzzzzzzzzzzzzzzzzzzzzzzzzzzzzzzzzzzzzzzzzzzzzzzzzzzzzzzzzzzzzzzzzzzzzzzzzzzzzz.   k",
"ze   ezzzzzzzzzzzzzzzzzzzzzzzzzzzzzzzzzzzzzzzzzzzzzzzzzzzzzzzzzzzzzzzzzzzzzzzzzzzzzzzzzzzzzzzzzzzzzzzzzzzzzzzzzzzzzzzzzzzzz.   k",
"ze   4zzzzzzzzzzzzzzzzzzzzzzzzzzzzzzzzzzzzzzzzzzzzzzzzzzzzzzzzzzzzzzzzzzzzzzzzzzzzzzzzzzzzzzzzzzzzzzzzzzzzzzzzzzzzzzzzzzzzz.   k",
"ze   ezzzzzzzzzzzzzzzzzzzzzzzzzzzzzzzzzzzzzzzzzzzzzzzzzzzzzzzzzzzzzzzzzzzzzzzzzzzzzzzzzzzzzzzzzzzzzzzzzzzzzzzzzzzzzzzzzzzzz.   k",
"ze   4zzzzzzzzzzzzzzzzzzzzzzzzzzzzzzzzzzzzzzzzzzzzzzzzzzzzzzzzzzzzzzzzzzzzzzzzzzzzzzzzzzzzzzzzzzzzzzzzzzzzzzzzzzzzzzzzzzzzz.   k",
"ze   4zzzzzzzzzzzzzzzzzzzzzzzzzzzzzzzzzzzzzzzzzzzzzzzzzzzzzzzzzzzzzzzzzzzzzzzzzzzzzzzzzzzzzzzzzzzzzzzzzzzzzzzzzzzzzzzzzzzzz.   k",
"ze   4zzzzzzzzzzzzzzzzzzzzzzzzzzzzzzzzzzzzzzzzzzzzzzzzzzzzzzzzzzzzzzzzzzzzzzzzzzzzzzzzzzzzzzzzzzzzzzzzzzzzzzzzzzzzzzzzzzzzz.   k",
"ze   4zzzzzzzzzzzzzzzzzzzzzzzzzzzzzzzzzzzzzzzzzzzzzzzzzzzzzzzzzzzzzzzzzzzzzzzzzzzzzzzzzzzzzzzzzzzzzzzzzzzzzzzzzzzzzzzzzzzzz.   k",
"z4   4zzzzzzzzzzzzzzzzzzzzzzzzzzzzzzzzzzzzzzzzzzzzzzzzzzzzzzzzzzzzzzzzzzzzzzzzzzzzzzzzzzzzzzzzzzzzzzzzzzzzzzzzzzzzzzzzzzzzz.   k",
"ze   4zzzzzzzzzzzzzzzzzzzzzzzzzzzzzzzzzzzzzzzzzzzzzzzzzzzzzzzzzzzzzzzzzzzzzzzzzzzzzzzzzzzzzzzzzzzzzzzzzzzzzzzzzzzzzzzzzzzzz.   k",
"ze   4zzzzzzzzzzzzzzzzzzzzzzzzzzzzzzzzzzzzzzzzzzzzzzzzzzzzzzzzzzzzzzzzzzzzzzzzzzzzzzzzzzzzzzzzzzzzzzzzzzzzzzzzzzzzzzzzzzzzz.   k",
"ze   4zzzzzzzzzzzzzzzzzzzzzzzzzzzzzzzzzzzzzzzzzzzzzzzzzzzzzzzzzzzzzzzzzzzzzzzzzzzzzzzzzzzzzzzzzzzzzzzzzzzzzzzzzzzzzzzzzzzzz.   k",
"ze   4zzzzzzzzzzzzzzzzzzzzzzzzzzzzzzzzzzzzzzzzzzzzzzzzzzzzzzzzzzzzzzzzzzzzzzzzzzzzzzzzzzzzzzzzzzzzzzzzzzzzzzzzzzzzzzzzzzzzz.   k",
"ze   4uuuuuuuuuuuyuuuyuyyuyuyuyyyuyyyyyyyyyyyyyyyyyyyyytytyyytyytytytytttttyttttttttttttttttttttttrtrtrtrttrrrrtrrrrrrrrrrr.   k",
"ze                                                                                                                             j",
"ze                                                                                                                             k",
"ze                                                                                                                             j",
"ze<<<<<<<<<<<1<<<<<1<1<11<<11<1111<11111111111111111111111111212122112222121222222222222222222222322322332233223333333333333333k",
"zzzzzzzzzzzzzzzzzzzzzzzzzzzzzzzzzzzzzzzzzzzzzzzzzzzzzzzzzzzzzzzzzzzzzzzzzzzzzzzzzzzzzzzzzzzzzzzzzzzzzzzzzzzzzzzzzzzzzzzzzzzzzzzz"
};
