/* XPM */
static char *_6bc489a30af47bdaceaa86926d134d9L8EgNchmoTrxnkrE[] = {
/* columns rows colors chars-per-pixel */
"128 128 77 1 ",
"  c #000000",
". c #02050B",
"X c #0B0B0B",
"o c #020711",
"O c #030814",
"+ c #040B1B",
"@ c #141414",
"# c #1C1C1C",
"$ c #050E22",
"% c #051026",
"& c #06122C",
"* c #071533",
"= c #081737",
"- c #081738",
"; c #09193D",
": c #242424",
"> c #2D2D2D",
", c #333333",
"< c #3B3B3B",
"1 c #091C43",
"2 c #0A1F4A",
"3 c #0B204E",
"4 c #0C2253",
"5 c #0D255B",
"6 c #0E2964",
"7 c #0F2D6C",
"8 c #102E6F",
"9 c #102F72",
"0 c #113176",
"q c #12347E",
"w c #444444",
"e c #4C4C4C",
"r c #535353",
"t c #5C5C5C",
"y c #636363",
"u c #6C6C6C",
"i c #747474",
"p c #7B7B7B",
"a c #123581",
"s c #133887",
"d c #14398B",
"f c #153D93",
"g c #163F99",
"h c #16419D",
"j c #1743A3",
"k c #1845A7",
"l c #1846AB",
"z c #1948AF",
"x c #194AB4",
"c c #1B4DBC",
"v c #1B4FC0",
"b c #1C51C4",
"n c #1D54CB",
"m c #1E56D2",
"M c #1E58D6",
"N c #1F5ADB",
"B c #205EE4",
"V c #2161EB",
"C c #2264F3",
"Z c #2367FA",
"A c #2469FF",
"S c #848484",
"D c #8C8C8C",
"F c #939393",
"G c #9B9B9B",
"H c #A3A3A3",
"J c #ABABAB",
"K c #B5B5B5",
"L c #BCBCBC",
"P c #C3C3C3",
"I c #CDCDCD",
"U c #D4D4D4",
"Y c #DBDBDB",
"T c #E3E3E3",
"R c #ECECEC",
"E c #F4F4F4",
"W c #FFFFFF",
/* pixels */
"AAAAAAAAAAAAAAAAAAAAAAAAAAAAAAAAAAAAAAAAAAAAAAAAAAAAAAAAAAAAAAAAAAAAAAAAAAAAAAAAAAAAAAAAAAAAAAAAAAAAAAAAAAAAAAAAAAAAAAAAAAAAAAAA",
"A----====;=======*==*=*=*********=**&****&&***&&*&*&&&&&&&&&&&&&&&&&&&&&&%&&%&&%&&%%%&%%%%%%%%%%$$$%%$$%%%$$$$$$$$$$$$$+$$+$$+2A",
"A&                                                                                                                            1A",
"A*                                                                                                                            2A",
"A*                                                                                                                            2A",
"A*   bbnnbbbnbnnnbbnnnnnnnnnnnnnnnnnnmnnnmmnmnnmmmmmmmmmmmmmmMmmmMmMmMMMMMMMMMMMMMMMMMMMMNMNNNMNNNNNNNNNNNNNNNNNNNNNNBBNBNc   1A",
"A*   nAAAAAAAAAAAAAAAAAAAAAAAAAAAAAAAAAAAAAAAAAAAAAAAAAAAAAAAAAAAAAAAAAAAAAAAAAAAAAAAAAAAAAAAAAAAAAAAAAAAAAAAAAAAAAAAAAAAAc   1A",
"A*   nAAAAAAAAAAAAAAAAAAAAAAAAAAAAAAAAAAAAAAAAAAAAAAAAAAAAAAAAAAAAAAAAAAAAAAAAAAAAAAAAAAAAAAAAAAAAAAAAAAAAAAAAAAAAAAAAAAAAc   1A",
"A*   mAAAAAAAAAAAAAAAAAAAAAAAAAAAAAAAAAAAAAAAAAAAAAAAAAAAAAAAAAAAAAAAAAAAAAAAAAAAAAAAAAAAAAAAAAAAAAAAAAAAAAAAAAAAAAAAAAAAAc   2A",
"A&   nAAAAAAAAAAAAAAAAAAAAAAAAAAAAAAAAAAAAAAAAAAAAAAAAAAAAAAAAAAAAAAAAAAAAAAAAAAAAAAAAAAAAAAAAAAAAAAAAAAAAAAAAAAAAAAAAAAAAc   1A",
"A*   nAAAAAAAAAAAAAAAAAAAAAAAAAAAAAAAAAAAAAAAAAAAAAAAAAAAAAAAAAAAAAAAAAAAAAAAAAAAAAAAAAAAAAAAAAAAAAAAAAAAAAAAAAAAAAAAAAAAAc   1A",
"A*   nAAAAAAAAAAAAAAAAAAAAAAAAAAAAAAAAAAAAAAAAAAAAAAAAAAAAAAAAAAAAAAAAAAAAAAAAAAAAAAAAAAAAAAAAAAAAAAAAAAAAAAAAAAAAAAAAAAAAc   1A",
"A*   nAAAAAAAAAAAAAAAAAAAAAAAAAAAAAAAAAAAAAAAAAAAAAAAAAAAAAAAAAAAAAAAAAAAAAAAAAAAAAAAAAAAAAAAAAAAAAAAAAAAAAAAAAAAAAAAAAAAAc   1A",
"A*   nAAAAAAAAAAAAAAAAAAAAAAAAAAAAAAAAAAAAAAAAAAAAAAAAAAAAAAAAAAAAAAAAAAAAAAAAAAAAAAAAAAAAAAAAAAAAAAAAAAAAAAAAAAAAAAAAAAAAc   1A",
"A*   nAAAAAAAAAAAAAAAAAAAAAAAAAAAAAAAAAAAAAAAAAAAAAAAAAAAAAAAAAAAAAAAAAAAAAAAAAAAAAAAAAAAAAAAAAAAAAAAAAAAAAAAAAAAAAAAAAAAAc   1A",
"A*   nAAAAAAAAAAAAAAAAAAAAAAAAAAAAAAAAAAAAAAAAAAAAAAAAAAAAAAAAAAAAAAAAAAAAAAAAAAAAAAAAAAAAAAAAAAAAAAAAAAAAAAAAAAAAAAAAAAAAc   1A",
"A=   nAAAAAAAAAAAAAAAAAAAAAAAAAAAAAAAAAAAAAAAAAAAAAAAAAAAAAAAAAAAAAAAAAAAAAAAAAAAAAAAAAAAAAAAAAAAAAAAAAAAAAAAAAAAAAAAAAAAAv   1A",
"A*   nAAAAAAAAAAAAAAAAAAAAAAAAAAAAAAAAAAAAAAAAAAAAAAAAAAAAAAAAAAAAAAAAAAAAAAAAAAAAAAAAAAAAAAAAAAAAAAAAAAAAAAAAAAAAAAAAAAAAc   1A",
"A*   nAAAAAAAAAAAAAAAAAAAAAAAAAAAAAAAAAAAAAAAAAAAAAAAAAAAAAAAAAAAAAAAAAAAAAAAAAAAAAAAAAAAAAAAAAAAAAAAAAAAAAAAAAAAAAAAAAAAAc   1A",
"A*   nAAAAAAAAAAAAAAAAAAAAAAAAAAAAAAAAAAAAAAAAAAAAAAAAAAAAAAAAAAAAAAAAAAAAAAAAAAAAAAAAAAAAAAAAAAAAAAAAAAAAAAAAAAAAAAAAAAAAc   1A",
"A*   nAAAAAAAAAAAAAAAAAAAAAAAAAAAAAAAAAAAAAAAAAAAAAAAAAAAAAAAAAAAAAAAAAAAAAAAAAAAAAAAAAAAAAAAAAAAAAAAAAAAAAAAAAAAAAAAAAAAAc   1A",
"A*   nAAAAAAAAAAAAAAAAAAAAAAAAAAAAAAAAAAAAAAAAAAAAAAAAAAAAAAAAAAAAAAAAAAAAAAAAAAAAAAAAAAAAAAAAAAAAAAAAAAAAAAAAAAAAAAAAAAAAc   1A",
"A*   nAAAAAAAAAAAAAAAAAAAAAAAAAAAAAAAAAAAAAAAAAAAAAAAAAAAAAAAAAAAAAAAAAAAAAAAAAAAAAAAAAAAAAAAAAAAAAAAAAAAAAAAAAAAAAAAAAAAAv   ;A",
"A=   nAAAAAAAAAAAAAAAAAAAAAAAAAAAAAAAAAAAAAAAAAAAAAAAAAAAAAAAAAAAAAAAAAAAAAAAAAAAAAAAAAAAAAAAAAAAAAAAAAAAAAAAAAAAAAAAAAAAAc   1A",
"A*   bAAAAAAAAAAAAAAAAAAAAAAAAAAAAAAAAAAAAAAAAAAAAAAAAAAAAAAAAAAAAAAAAAAAAAAAAAAAAAAAAAAAAAAAAAAAAAAAAAAAAAAAAAAAAAAAAAAAAb   1A",
"A=   nAAAAAAAAAAAAAAAAAAAAAAAAAAAAAAAAAAAAAAAAAAAAAAAAAAAAAAAAAAAAAAAAAAAAAAAAAAAAAAAAAAAAAAAAAAAAAAAAAAAAAAAAAAAAAAAAAAAAc   ;A",
"A*   nAAAAAAAAAAAAAAAAAAAAAAAAAAAAAAAAAAAAAAAAAAAAAAAAAAAAAAAAAAAAAAAAAAAAAAAAAAAAAAAAAAAAAAAAAAAAAAAAAAAAAAAAAAAAAAAAAAAAc   1A",
"A=   nAAAAAAAAAAAAAAAAAAAAAAAAAAAAAAAAAAAAAAAAAAAAAAAAAAAAAAAAAAAAAAAAAAAAAAAAAAAAAAAAAAAAAAAAAAAAAAAAAAAAAAAAAAAAAAAAAAAAb   ;A",
"A=   bAAAAAAAAAAAAAAAAAAAAAAAAAAAAAAAAAAAAAAAAAAAAAAAAAAAAAAAAAAAAAAAAAAAAAAAAAAAAAAAAAAAAAAAAAAAAAAAAAAAAAAAAAAAAAAAAAAAAv   1A",
"A=   nAAAAAAAAAAAAAAAAAAAAAAAAAAAAAAAAAAAAAAAAAAAAAAAAAAAAAAAAAAAAAAAAAAAAAAAAAAAAAAAAAAAAAAAAAAAAAAAAAAAAAAAAAAAAAAAAAAAAv   ;A",
"A*   nAAAAAAAAAAAAAAAAAAAAAAAAAAAAAAAAAAAAAAAAAAAAAAAAAAAAAAAAAAAAAAAAAAAAAAAAAAAAAAAAAAAAAAAAAAAAAAAAAAAAAAAAAAAAAAAAAAAAv   ;A",
"A=   nAAAAAAAAAAAAAAAAAAAAAAAAAAmfsfhkxcVAAAAAAAAAAAAAAAAAAAAAAAAAAAAAAAAAAAAAAAAAAAAAAAAAAAAAAAAAAAAAAAAAAAAAAAAAAAAAAAAAv   ;A",
"A=   nAAAAAAAAAAAAAAAAAAAAAACh6$         &6fvCAAAAAAAAAAAAAAAAAAAAAAAAAAAAAAAAAAAAAAAAAAAAAAAAAAAAAAAAAAAAAAAAAAAAAAAAAAAAv   ;A",
"A=   nAAAAAAAAAAAAAAAAAAAAAm1                O6xAAAAAAAAAAAAAAAAAAAAAAAAAAAAAAAAACbg7124589qxAAAAAAAAAAAAAAAAAAAAAAAAAAAAAv   ;A",
"A=   nAAAAAAAAAAAAAAAAAAAAz+    #IWWK@          *qnAAAAAAAAAAAAAAAAAAAAAAAAAAAAd&            .2dMAAAAAAAAAAAAAAAAAAAAAAAAAv   ;A",
"A=   bAAAAAAAAAAAAAAAAAAAs     :EWWWWWKy#          3cAAAAAAAAAAAAAAAAAAAAAAAAx1                  =kAAAAAAAAAAAAAAAAAAAAAAAv   ;A",
"A=   bAAAAAAAAAAAAAAAAAAc     XTWWWWWWWWWLi>         5nAAAAAAAAAAAAAAAAAAAAB8         X#:<py:      5nAAAAAAAAAAAAAAAAAAAAAb   ;A",
"A=   bAAAAAAAAAAAAAAAAAA1    .PWWWWWWWWWWWWWUD<        8MAAAAAAAAAAAAAAAAAN&   <PRTTRWWWWWWWWS      .aCAAAAAAAAAAAAAAAAAAAc   ;A",
"A=   bAAAAAAAAAAAAAAAAAd     KWWWWWWWWWWWWWWWWWRGrX     oqZAAAAAAAAAAAAAAV=   pWWWWWWWWWWWWWWWK@      *NAAAAAAAAAAAAAAAAAAb   ;A",
"A=   nAAAAAAAAAAAAAAAAA&    LWWWWWWWWWWWWWWWWWWWWWWKu#    2BAAAAAAAAAAAAV1   uWWWWWWWWWWWWWWWWWYw      ;VAAAAAAAAAAAAAAAAAb   ;A",
"A-   nAAAAAAAAAAAAAAAAN   >RWWWWWWWWWWWWWWWWWWWWWWWWWWPp>  &BAAAAAAAAAAZ3  @PWWWWWWWWWWWWWWWWWWWWi      2CAAAAAAAAAAAAAAAAb   ;A",
"A;   bAAAAAAAAAAAAAAAAj   EWWWWWWWWWWWWWWWWWWWWWWWWWWWWWWG  aAAAAAAAAAA6  tWWWWWWWWWWWWWWWWWWWWWWWG.     4AAAAAAAAAAAAAAAAb   ;A",
"A=   bAAAAAAAAAAAAAAAA7  DWWWWWWWWWWWWWWWWWWWWWWWWWWWWWWWWD +BAAAAAAAAx  .WWWWWWWWWWWWWWWWWWWWWWWWWU<     kAAAAAAAAAAAAAAAb   ;A",
"A;   bAAAAAAAAAAAAAAAA;  IWWWWWWWWWJeFTWWWWWWWWWWWWWWWWWWWY  xAAAAAAAA1  GWWWWWWWWWWWWWWWWWWWWWWWWWWWS    ;AAAAAAAAAAAAAAAb   ;A",
"A=   nAAAAAAAAAAAAAAAA*  IWWWWWWWWK    ,SIWWWWWWWWWWWWWWWWT  hAAAAAAAf   TWWWWWWWWWWTUPKJKEWWWWWWWWWWWe    fAAAAAAAAAAAAAAb   ;A",
"A=   bAAAAAAAAAAAAAAAA$  HWWWWWWWRX       :uKWWWWWWWWWWWWWK  sAAAAAAV+  eWWWWWWWWWD       #LWWWWWWWWWWP    $VAAAAAAAAAAAAAv   ;A",
"A-   bAAAAAAAAAAAAAAAAO  iWWWWWWWP  7Amd3.   XtHRWWWWWWWWWy  xAAAAAA0   KWWWWWWWWt          DWWWWWWWWWWt    fAAAAAAAAAAAAAv   ;A",
"A-   bAAAAAAAAAAAAAAAA.  iWWWWWWWL  qAAAAVf;     wDYWWWWWK  +AAAAAAM   <WWWWWWWWS    +-&O    tWWWWWWWWWI    2AAAAAAAAAAAAAb   ;A",
"A-   bAAAAAAAAAAAAAAAA.  iWWWWWWWL  5AAAAAAAx6      ,pKLS   8AAAAAAf   PWWWWWWWT    aAAAACcd& >TWWWWWWWWt    BAAAAAAAAAAAAb   ;A",
"A-   bAAAAAAAAAAAAAAAA=  iWWWWWWWL  *AAAAAAAAAn6           1CAAAAAA3  tWWWWWWWWp   jAAAAAAAACq  YWWWWWWWU    hAAAAAAAAAAAAb   ;A",
"A-   bAAAAAAAAAAAAAAAA5  HWWWWWWWY  .AAAAAAAAAAAn6        *BAAAAAAV   UWWWWWWWEX  3AAAAAAAAAAA1 yWWWWWWWWy   5AAAAAAAAAAAAb   -A",
"A;   bAAAAAAAAAAAAAAAAd  IWWWWWWWW#  bAAAAAAAAAAAAn8O   &hAAAAAAAAh   EWWWWWWWD   lAAAAAAAAAAAx  UWWWWWWWY   oVAAAAAAAAAAAb   ;A",
"A;   bAAAAAAAAAAAAAAAAz  IWWWWWWWWH  0AAAAAAAAAAAAAAAbMVAAAAAAAAAA1   WWWWWWWW:  ;AAAAAAAAAAAAA3 tWWWWWWWWS   lAAAAAAAAAAAb   ;A",
"A;   bAAAAAAAAAAAAAAAAm  DWWWWWWWWWr &AAAAAAAAAAAAAAAAAAAAAAAAAAAC    WWWWWWWE   dAAAAAAAAAAAAAx  IWWWWWWWW   8AAAAAAAAAAAb   -A",
"A=   bAAAAAAAAAAAAAAAACO XWWWWWWWWWYX ;AAAAAAAAAAAAAAAAAAAAAAAAAAN    WWWWWWWY   nAAAAAAAAAAAAAC. tWWWWWWWWG  =AAAAAAAAAAAb   ;A",
"A;   bAAAAAAAAAAAAAAAAA6  uWWWWWWWWWF  =CAAAAAAAAAAAAAAAAAAAAAAAAc   XWWWWWWWP  &AAAAAAAAAAAAAAA;  UWWWWWWWT   NAAAAAAAAAAb   -A",
"A;   bAAAAAAAAAAAAAAAAAx   SWWWWWWWWWw  +cAAAAAAAAAAAAAAAAAAAAAAAj   #WWWWWWWK  6AAAAAAAAAAAAAAAq  uWWWWWWWE   kAAAAAAAAAAb   ;A",
"A-   bAAAAAAAAAAAAAAAAAA$   IWWWWWWWWY    aAAAAAAAAAAAAAAAAAAAAAAa   ,WWWWWWWH  xAAAAAAAAAAAAAAAc   WWWWWWWE   5AAAAAAAAAAb   ;A",
"A-   bAAAAAAAAAAAAAAAAAA0   wWWWWWWWWWK    1vAAAAAAAAAAAAAAAAAAAA6   wWWWWWWWF  AAAAAAAAAAAAAAAAC   YWWWWWWW@  +AAAAAAAAAAb   -A",
"A;   bAAAAAAAAAAAAAAAAAAb    FWWWWWWWWWH     qAAAAAAAAAAAAAAAAAAA2   rWWWWWWWS  AAAAAAAAAAAAAAAAA%  JWWWWWWW<   mAAAAAAAAAb   -A",
"A;   bAAAAAAAAAAAAAAAAAAA6   XTWWWWWWWWWH     3MAAAAAAAAAAAAAAAAA2   pWWWWWWWJ  AAAAAAAAAAAAAAAAA5  SWWWWWWWy   zAAAAAAAAAb   -A",
"A;   vAAAAAAAAAAAAAAAAAAAV&   rWWWWWWWWWWP#    +jAAAAAAAAAAAAAAAA3   FWWWWWWWK  AAAAAAAAAAAAAAAAAd  tWWWWWWWD   fAAAAAAAAAn   -A",
"A;   vAAAAAAAAAAAAAAAAAAAAx    TWWWWWWWWWWY,     8CAAAAAAAAAAAAAA5   pWWWWWWWP  AAAAAAAAAAAAAAAAAc  >WWWWWWWK   qAAAAAAAAAb   -A",
"A;   bAAAAAAAAAAAAAAAAAAAAAa   eWWWWWWWWWWWWr     ;nAAAAAAAAAAAAA6   >WWWWWWWU  AAAAAAAAAAAAAAAAAM  .WWWWWWWT   7AAAAAAAAAb   -A",
"A;   bAAAAAAAAAAAAAAAAAAAAAAs   DWWWWWWWWWWWWu     OlZAAAAAAAAAAA7    EWWWWWWR  AAAAAAAAAAAAAAAAAV   YWWWWWWW   3AAAAAAAAAn   ;A",
"A;   vAAAAAAAAAAAAAAAAAAAAAAAf   tRWWWWWWWWWWWD      hAAAAAAAAAAA0    IWWWWWWW@ xAAAAAAAAAAAAAAAAA   KWWWWWWW   =AAAAAAAAAb   =A",
"A;   bAAAAAAAAAAAAAAAAAAAAAAAAh   @KWWWWWWWWWWWH      dAAAAAAAAAAq    JWWWWWWW> 8AAAAAAAAAAAAAAAAA+  GWWWWWWW   +AAAAAAAAAb   =A",
"A;   vAAAAAAAAAAAAAAAAAAAAAAAAAl+   HWWWWWWWWWWWL#     jAAAAAAAAAv    DWWWWWWWe *AAAAAAAAAAAAAAAAA=  GWWWWWWW   .AAAAAAAAAb   -A",
"A;   bAAAAAAAAAAAAAAAAAAAAAAAAAAm2   SWWWWWWWWWWWY,     bAAAAAAAAA    iWWWWWWWu  MAAAAAAAAAAAAAAAA=  HWWWWWWW   OAAAAAAAAAb   =A",
"A;   vAAAAAAAAAAAAAAAAAAAAAAAAAAAAq   uWWWWWWWWWWWEe     nAAAAAAAA2   eWWWWWWWD  jAAAAAAAAAAAAAAAA$  LWWWWWWW   %AAAAAAAAAb   =A",
"A;   vAAAAAAAAAAAAAAAAAAAAAAAAAAAAAk$  eEWWWWWWWWWWWI@   *AAAAAAAAs   ,WWWWWWWJ  4AAAAAAAAAAAAAAAAo  RWWWWWWW   ;AAAAAAAAAn   =A",
"A;   bAAAAAAAAAAAAAAAAAAAAAAAAAAAAAAN4  ,YWWWWWWWWWWWT    fAAAAAAAc   @WWWWWWWY   bAAAAAAAAAAAAAAA  :WWWWWWWI   3AAAAAAAAAb   =A",
"A;   cAAAAAAAAAAAAAAAAAAAAAAAAAAAAAAAAd. #LWWWWWWWWWWWS   &CAAAAAAC.   WWWWWWWW   7AAAAAAAAAAAAAAB  rWWWWWWWG   6AAAAAAAAAb   ;A",
"A;   bAAAAAAAAAAAAAAAAAAAAAAAAAAAAAAAAAm4  HWWWWWWWWWWT    sAAAAAAA2   WWWWWWWWr  OBAAAAAAAAAAAAAM  SWWWWWWWu   qAAAAAAAAAb   =A",
"A1   cAAAAAAAAAAAAAAAAAAAAAAAAAAAAAAAAAAAa  DWWWWWWWWWW    $VAAAAAAq   RWWWWWWWK   sAAAAAAAAAAAAAb  KWWWWWWW<   fAAAAAAAAAn   =A",
"A;   bAAAAAAAAAAAAAAAAAAAAAAAAAAAAAAAAAAAAj  uWWWWWWWWWr    qAAAAAAM.  GWWWWWWWW,  &AAAAAAAAAAAAAf  TWWWWWWWX   jAAAAAAAAAn   =A",
"A1   cAAAAAAAAAAAAAAAAAAAAAAAAAAAAAAAAAAAAAAO tWWWWWWWWH    &AAAAAAA6   EWWWWWWWG   qAAAAAAAAAAAA6 #WWWWWWWU    cAAAAAAAAAn   =A",
"A;   bAAAAAAAAAAAAAAAAAAAAAAAAAAAAAAAAAAAAAAB& KWWWWWWWE     xAAAAAAv   iWWWWWWWW@   bAAAAAAAAAAA* eWWWWWWWJ    VAAAAAAAAAb   =A",
"A;   bAAAAAAAAAAAAAAAAAAAAAAAAAAAAAAAAAAAAAAAf rWWWWWWWWe    6AAAAAAA2  @WWWWWWWWi   1AAAAAAAAAAC. pWWWWWWWi   $AAAAAAAAAAn   =A",
"A1   cAAAAAAAAAAAAAAAAAAAcf81dbAAAAAAAAAAAAAAA* WWWWWWWWH    .AAAAAAAk   FWWWWWWWY    qAAAAAAAAAb  UWWWWWWWw   5AAAAAAAAAAb   =A",
"A1   cAAAAAAAAAAAAAAAAAA5      1BAAAAAAAAAAAAAh JWWWWWWWR     zAAAAAAA*  ,WWWWWWWWr    jAAAAAAAg. @WWWWWWWW@   fAAAAAAAAAAn   =A",
"A;   cAAAAAAAAAAAAAAAAA          bAAAAAAAAAAAAZ%rWWWWWWWWe    7AAAAAAAd   KWWWWWWWL     cAAAAc4   FWWWWWWWW    bAAAAAAAAAAb   =A",
"A;   bAAAAAAAAAAAAAAAA6   :SJS@   MAAAAAAAAAAAA7XWWWWWWWWG    2AAAAAAAV+  rWWWWWWWW,    +mAb6    >WWWWWWWWR   oCAAAAAAAAAAb   =A",
"A1   cAAAAAAAAAAAAAAAa   SWWWWY#   ZAAAAAAAAAAAx JWWWWWWWR    $AAAAAAAAh   YWWWWWWWEt    .3      JWWWWWWWWD   5AAAAAAAAAAAn   *A",
"A1   cAAAAAAAAAAAAAAA;  SWWWWWWJ    MAAAAAAAAAAA%tWWWWWWWWe    AAAAAAAAA5  iWWWWWWWWWK,       .eJWWWWWWWWT    kAAAAAAAAAAAn   =A",
"A;   vAAAAAAAAAAAAAAV  .EWWWWWWWr    hAAAAAAAAAA4XWWWWWWWWP    MAAAAAAAAM+ XEWWWWWWWWWWD.  <pLWWWWWWWWWWW>   oVAAAAAAAAAAAn   *A",
"A1   cAAAAAAAAAAAAAAn  @WWWWWWWWWJr   146qaqqq02+ JWWWWWWWW>   bAAAAAAAAAf  HWWWWWWWWWWWRIEWWWWWWWWWWWWWD    0AAAAAAAAAAAAn   *A",
"A1   cAAAAAAAAAAAAAAN   YWWWWWWWWWWRGw            JWWWWWWWWF   mAAAAAAAAAA4 ,WWWWWWWWWWWWWWWWWWWWWWWWWWR@   &CAAAAAAAAAAAAn   =A",
"A1   cAAAAAAAAAAAAAAC   iWWWWWWWWWWWWWTD<        <WWWWWWWWWG   NAAAAAAAAAAmO JWWWWWWWWWWWWWWWWWWWWWWWWWu    zAAAAAAAAAAAAAn   *A",
"A1   cAAAAAAAAAAAAAAA4   UWWWWWWWWWWWWWWWETPKHGFSTWWWWWWWWWr   VAAAAAAAAAAAh  DRWWWWWWWWWWWWWWWWWWWWWWW    dAAAAAAAAAAAAAAn   *A",
"A1   cAAAAAAAAAAAAAAAn.  tWWWWWWWWWWWWWWWWWWWWWWWWWWWWWWWWU    CAAAAAAAAAAAAh   yTWWWWWWWWWWWWWWWWWWWWF   jAAAAAAAAAAAAAAAn   *A",
"A;   bAAAAAAAAAAAAAAAAa   YWWWWWWWWWWWWWWWWWWWWWWWWWWWWWWY    1AAAAAAAAAAAAAC=   XDWWWWWWWWWWWWWWWWEYy  +xAAAAAAAAAAAAAAAAn   *A",
"A1   cAAAAAAAAAAAAAAAAAq  >WWWWWWWWWWWWWWWWWWWWWWWWWWWWWE#    xAAAAAAAAAAAAAAx     ,KWWWWWWWWWWPSw.    2nAAAAAAAAAAAAAAAAAn   *A",
"A1   cAAAAAAAAAAAAAAAAAAa  >PRWWWWWWWWWWWWWWWWWWWWWWWWWWt    1AAAAAAAAAAAAAAAAq      tYWWWWTFr@      &gAAAAAAAAAAAAAAAAAAAn   *A",
"A1   cAAAAAAAAAAAAAAAAAAAq     rJWWWWWWWWWWWWWWWWWWWWWWG     hAAAAAAAAAAAAAAAAAf      XiKJe        .qCAAAAAAAAAAAAAAAAAAAAn   *A",
"A1   cAAAAAAAAAAAAAAAAAAAAa      XyKWWWWWWWWWWWWWWWWWWWX    qAAAAAAAAAAAAAAAAAAAh                o7MAAAAAAAAAAAAAAAAAAAAAAn   *A",
"A1   cAAAAAAAAAAAAAAAAAAAAAl$       #iRWWWWWWWWWWWWWWWS    aAAAAAAAAAAAAAAAAAAAAAz2            &sNAAAAAAAAAAAAAAAAAAAAAAAAm   *A",
"A1   cAAAAAAAAAAAAAAAAAAAAAAB5         rGJFpSDGHJUEWRi    aAAAAAAAAAAAAAAAAAAAAAAAAj=        2hZAAAAAAAAAAAAAAAAAAAAAAAAAAn   *A",
"A1   cAAAAAAAAAAAAAAAAAAAAAAAAf$                   .   +qmAAAAAAAAAAAAAAAAAAAAAAAAAAAMxfdjxnVAAAAAAAAAAAAAAAAAAAAAAAAAAAAAn   *A",
"A2   cAAAAAAAAAAAAAAAAAAAAAAAAACh3                  .;fVAAAAAAAAAAAAAAAAAAAAAAAAAAAAAAAAAAAAAAAAAAAAAAAAAAAAAAAAAAAAAAAAAAn   &A",
"A1   cAAAAAAAAAAAAAAAAAAAAAAAAAAAAbh92$         %5dcCAAAAAAAAAAAAAAAAAAAAAAAAAAAAAAAAAAAAAAAAAAAAAAAAAAAAAAAAAAAAAAAAAAAAAm   *A",
"A2   cAAAAAAAAAAAAAAAAAAAAAAAAAAAAAAAAACnbmMBVCAAAAAAAAAAAAAAAAAAAAAAAAAAAAAAAAAAAAAAAAAAAAAAAAAAAAAAAAAAAAAAAAAAAAAAAAAAAn   *A",
"A1   cAAAAAAAAAAAAAAAAAAAAAAAAAAAAAAAAAAAAAAAAAAAAAAAAAAAAAAAAAAAAAAAAAAAAAAAAAAAAAAAAAAAAAAAAAAAAAAAAAAAAAAAAAAAAAAAAAAAAn   &A",
"A1   cAAAAAAAAAAAAAAAAAAAAAAAAAAAAAAAAAAAAAAAAAAAAAAAAAAAAAAAAAAAAAAAAAAAAAAAAAAAAAAAAAAAAAAAAAAAAAAAAAAAAAAAAAAAAAAAAAAAAn   *A",
"A2   cAAAAAAAAAAAAAAAAAAAAAAAAAAAAAAAAAAAAAAAAAAAAAAAAAAAAAAAAAAAAAAAAAAAAAAAAAAAAAAAAAAAAAAAAAAAAAAAAAAAAAAAAAAAAAAAAAAAAm   *A",
"A1   cAAAAAAAAAAAAAAAAAAAAAAAAAAAAAAAAAAAAAAAAAAAAAAAAAAAAAAAAAAAAAAAAAAAAAAAAAAAAAAAAAAAAAAAAAAAAAAAAAAAAAAAAAAAAAAAAAAAAn   *A",
"A1   cAAAAAAAAAAAAAAAAAAAAAAAAAAAAAAAAAAAAAAAAAAAAAAAAAAAAAAAAAAAAAAAAAAAAAAAAAAAAAAAAAAAAAAAAAAAAAAAAAAAAAAAAAAAAAAAAAAAAn   &A",
"A2   cAAAAAAAAAAAAAAAAAAAAAAAAAAAAAAAAAAAAAAAAAAAAAAAAAAAAAAAAAAAAAAAAAAAAAAAAAAAAAAAAAAAAAAAAAAAAAAAAAAAAAAAAAAAAAAAAAAAAm   &A",
"A1   cAAAAAAAAAAAAAAAAAAAAAAAAAAAAAAAAAAAAAAAAAAAAAAAAAAAAAAAAAAAAAAAAAAAAAAAAAAAAAAAAAAAAAAAAAAAAAAAAAAAAAAAAAAAAAAAAAAAAn   *A",
"A2   cAAAAAAAAAAAAAAAAAAAAAAAAAAAAAAAAAAAAAAAAAAAAAAAAAAAAAAAAAAAAAAAAAAAAAAAAAAAAAAAAAAAAAAAAAAAAAAAAAAAAAAAAAAAAAAAAAAAAm   &A",
"A2   xAAAAAAAAAAAAAAAAAAAAAAAAAAAAAAAAAAAAAAAAAAAAAAAAAAAAAAAAAAAAAAAAAAAAAAAAAAAAAAAAAAAAAAAAAAAAAAAAAAAAAAAAAAAAAAAAAAAAm   *A",
"A1   cAAAAAAAAAAAAAAAAAAAAAAAAAAAAAAAAAAAAAAAAAAAAAAAAAAAAAAAAAAAAAAAAAAAAAAAAAAAAAAAAAAAAAAAAAAAAAAAAAAAAAAAAAAAAAAAAAAAAm   &A",
"Z2   cAAAAAAAAAAAAAAAAAAAAAAAAAAAAAAAAAAAAAAAAAAAAAAAAAAAAAAAAAAAAAAAAAAAAAAAAAAAAAAAAAAAAAAAAAAAAAAAAAAAAAAAAAAAAAAAAAAAAn   &A",
"A2   xAAAAAAAAAAAAAAAAAAAAAAAAAAAAAAAAAAAAAAAAAAAAAAAAAAAAAAAAAAAAAAAAAAAAAAAAAAAAAAAAAAAAAAAAAAAAAAAAAAAAAAAAAAAAAAAAAAAAm   &A",
"A2   cAAAAAAAAAAAAAAAAAAAAAAAAAAAAAAAAAAAAAAAAAAAAAAAAAAAAAAAAAAAAAAAAAAAAAAAAAAAAAAAAAAAAAAAAAAAAAAAAAAAAAAAAAAAAAAAAAAAAm   *A",
"Z2   xAAAAAAAAAAAAAAAAAAAAAAAAAAAAAAAAAAAAAAAAAAAAAAAAAAAAAAAAAAAAAAAAAAAAAAAAAAAAAAAAAAAAAAAAAAAAAAAAAAAAAAAAAAAAAAAAAAAAm   &A",
"A2   cAAAAAAAAAAAAAAAAAAAAAAAAAAAAAAAAAAAAAAAAAAAAAAAAAAAAAAAAAAAAAAAAAAAAAAAAAAAAAAAAAAAAAAAAAAAAAAAAAAAAAAAAAAAAAAAAAAAAm   &A",
"A2   cAAAAAAAAAAAAAAAAAAAAAAAAAAAAAAAAAAAAAAAAAAAAAAAAAAAAAAAAAAAAAAAAAAAAAAAAAAAAAAAAAAAAAAAAAAAAAAAAAAAAAAAAAAAAAAAAAAAAm   &A",
"A2   xAAAAAAAAAAAAAAAAAAAAAAAAAAAAAAAAAAAAAAAAAAAAAAAAAAAAAAAAAAAAAAAAAAAAAAAAAAAAAAAAAAAAAAAAAAAAAAAAAAAAAAAAAAAAAAAAAAAAm   &A",
"A2   cAAAAAAAAAAAAAAAAAAAAAAAAAAAAAAAAAAAAAAAAAAAAAAAAAAAAAAAAAAAAAAAAAAAAAAAAAAAAAAAAAAAAAAAAAAAAAAAAAAAAAAAAAAAAAAAAAAAAm   &A",
"A2   cAAAAAAAAAAAAAAAAAAAAAAAAAAAAAAAAAAAAAAAAAAAAAAAAAAAAAAAAAAAAAAAAAAAAAAAAAAAAAAAAAAAAAAAAAAAAAAAAAAAAAAAAAAAAAAAAAAAAm   &A",
"Z2   xAAAAAAAAAAAAAAAAAAAAAAAAAAAAAAAAAAAAAAAAAAAAAAAAAAAAAAAAAAAAAAAAAAAAAAAAAAAAAAAAAAAAAAAAAAAAAAAAAAAAAAAAAAAAAAAAAAAAm   &A",
"A2   xvbbvvbvvvvbcbccccbcccvvccccccccccccccccxccccxcxcxccxcxxcxxxxxcxxxxxxxxxxxxxxxxxxxxxzxzxzxzzzzzzzzzzzzzzzzzllzlllzlzzk   &A",
"A2                                                                                                                            &A",
"A2                                                                                                                            &A",
"A2                                                                                                                            &A",
"A2;;;;;1;;;;;1;1;11;;11;11;1111111111211112111122212122222222222223232222322232222233333233333433343334434444444444444445444444A",
"AAAAAAAAAAAAAAAAAAAAAAAAAAAAAAAAAAAAAAAAAAAAAAAAAZAAAAAAAAZAAAAAAAAAAAAAAAAAAAAAAAAAAAAAAAAAAAAAAAAAAAAAAAAAAAAAAAAAAAAAAAAAAAAA"
};
