/* XPM */
static char *_2d59fc3fd194e5d9df22e0eb511bb270FOgJJYpwHdguZNF[] = {
/* columns rows colors chars-per-pixel */
"128 128 85 1 ",
"  c #000000",
". c #0C0C00",
"X c #0B0B0B",
"o c #131301",
"O c #1B1B01",
"+ c #141414",
"@ c #1B1B1B",
"# c #232301",
"$ c #2B2B01",
"% c #353501",
"& c #383701",
"* c #3B3B02",
"= c #232323",
"- c #2B2B2B",
"; c #343434",
": c #3C3C3C",
"> c #434302",
", c #484702",
"< c #4B4A02",
"1 c #504F02",
"2 c #545302",
"3 c #585702",
"4 c #5C5B03",
"5 c #605F03",
"6 c #656403",
"7 c #686703",
"8 c #6C6B03",
"9 c #706F03",
"0 c #747303",
"q c #787703",
"w c #7C7B03",
"e c #444444",
"r c #4C4C4C",
"t c #535353",
"y c #5B5B5B",
"u c #646464",
"i c #6B6B6B",
"p c #747474",
"a c #7C7C7C",
"s c #807F04",
"d c #848304",
"f c #888704",
"g c #8C8B04",
"h c #908F04",
"j c #949304",
"k c #989704",
"l c #9C9B04",
"z c #A5A405",
"x c #A8A705",
"c c #ACAB05",
"v c #B0AF05",
"b c #B4B305",
"n c #B8B705",
"m c #BCBB05",
"M c #C0BF05",
"N c #C4C205",
"B c #C8C605",
"V c #CCCA06",
"C c #D6D406",
"Z c #D9D706",
"A c #DDDB06",
"S c #E0DE06",
"D c #E5E306",
"F c #E8E606",
"G c #ECEA06",
"H c #F1EF07",
"J c #F3F107",
"K c #F8F607",
"L c #FFFD07",
"P c #838383",
"I c #8C8C8C",
"U c #939393",
"Y c #9C9C9C",
"T c #A4A4A4",
"R c #ACACAC",
"E c #B4B4B4",
"W c #BCBCBC",
"Q c #C3C3C3",
"! c #CBCBCB",
"~ c #D2D2D2",
"^ c #DCDCDC",
"/ c #E3E3E3",
"( c #EBEBEB",
") c #F4F4F4",
"_ c #FFFFFF",
/* pixels */
"LJJJJJJHJJJHHJHHHHHGHGHGHGGHGHHGHGGGGGGGGGGFGGGGFFFFFGFFFFFFFFFFDFDDFDDDDDDDDDDDFDDDDADSSSSDDDADAADAAADAAAASAAAAAAAAAAAZAZAZZAZZ",
"Lb                                                                                                                             N",
"Lb                                                                                                                             N",
"Lb                                                                                                                             m",
"Lb   .....o...o.o.o.o.oo.oo.oooooooooooooooooOoooOoooOoOoOoOOoOOOOoOOOOoOOOOOOOOOOOOOOOOOOOO##OOO##O#O##O###################   N",
"Lb   <LLLLLLLLLLLLLLLLLLLLLLLLLLLLLLLLLLLLLLLLLLLLLLLLLLLLLLLLLLLLLLLLLLLLLLLLLLLLLLLLLLLLLLLLLLLLLLLLLLLLLLLLLLLLLLLLLLLLL>   m",
"Lb   <LLLLLLLLLLLLLLLLLLLLLLLLLLLLLLLLLLLLLLLLLLLLLLLLLLLLLLLLLLLLLLLLLLLLLLLLLLLLLLLLLLLLLLLLLLLLLLLLLLLLLLLLLLLLLLLLLLLLL*   N",
"Lb   <LLLLLLLLLLLLLLLLLLLLLLLLLLLLLLLLLLLLLLLLLLLLLLLLLLLLLLLLLLLLLLLLLLLLLLLLLLLLLLLLLLLLLLLLLLLLLLLLLLLLLLLLLLLLLLLLLLLLL>   m",
"Lb   <LLLLLLLLLLLLLLLLLLLLLLLLLLLLLLLLLLLLLLLLLLLLLLLLLLLLLLLLLLLLLLLLLLLLLLLLLLLLLLLLLLLLLLLLLLLLLLLLLLLLLLLLLLLLLLLLLLLLL>   m",
"Lb   <LLLLLLLLLLLLLLLLLLLLLLLLLLLLLLLLLLLLLLLLLLLLLLLLLLLLLLLLLLLLLLLLLLLLLLLLLLLLLLLLLLLLLLLLLLLLLLLLLLLLLLLLLLLLLLLLLLLLL*   M",
"Lb   <LLLLLLLLLLLLLLLLLLLLLLLLLLLLLLLLLLLLLLLLLLLLLLLLLLLLLLLLLLLLLLLLLLLLLLLLLLLLLLLLLLLLLLLLLLLLLLLLLLLLLLLLLLLLLLLLLLLLL>   M",
"Lb   <LLLLLLLLLLLLLLLLLLLLLLLLLLLLLLLLLLLLLLLLLLLLLLLLLLLLLLLLLLLLLLLLLLLLLLLLLLLLLLLLLLLLLLLLLLLLLLLLLLLLLLLLLLLLLLLLLLLLL>   m",
"Lb   <LLLLLLLLLLLLLLLLLLLLLLLLLLLLLLLLLLLLLLLLLLLLLLLLLLLLLLLLLLLLLLLLLLLLLLLLLLLLLLLLLLLLLLLLLLLLLLLLLLLLLLLLLLLLLLLLLLLLL>   m",
"Lb   <LLLLLLLLLLLLLLLLLLLLLLLLLLLLLLLLLLLLLLLLLLLLLLLLLLLLLLLLLLLLLLLLLLLLLLLLLLLLLLLLLLLLLLLLLLLLLLLLLLLLLLLLLLLLLLLLLLLLL*   M",
"Lb   <LLLLLLLLLLLLLLLLLLLLLLLLLLLLLLLLLLLLLLLLLLLLLLLLLLLLLLLLLLLLLLLLLLLLLLLLLLLLLLLLLLLLLLLLLLLLLLLLLLLLLLLLLLLLLLLLLLLLL>   m",
"Lb   <LLLLLLLLLLLLLLLLLLLLLLLLLLLLLLLLLLLLLLLLLLLLLLLLLLLLLLLLLLLLLLLLLLLLLLLLLLLLLLLLLLLLLLLLLLLLLLLLLLLLLLLLLLLLLLLLLLLLL>   M",
"Lb   ,LLLLLLLLLLLLLLLLLLLLLLLLLLLLLLLLLLLLLLLLLLLLLLLLLLLLLLLLLLLLLLLLLLLLLLLLLLLLLLLLLLLLLLLLLLLLLLLLLLLLLLLLLLLLLLLLLLLLL*   m",
"Lb   <LLLLLLLLLLLLLLLLLLLLLLLLLLLLLLLLLLLLLLLLLLLLLLLLLLLLLLLLLLLLLLLLLLLLLLLLLLLLLLLLLLLLLLLLLLLLLLLLLLLLLLLLLLLLLLLLLLLLL>   m",
"Ln   <LLLLLLLLLLLLLLLLLLLLLLLLLLLLLLLLLLLLLLLLLLLLLLLLLLLLLLLLLLLLLLLLLLLLLLLLLLLLLLLLLLLLLLLLLLLLLLLLLLLLLLLLLLLLLLLLLLLLL>   m",
"Lb   <LLLLLLLLLLLLLLLLLLLLLLLLLLLLLLLLLLLLLLLLLLLLLLLLLLLLLLLLLLLLLLLLLLLLLLLLLLLLLLLLLLLLLLLLLLLLLLLLLLLLLLLLLLLLLLLLLLLLL>   m",
"Ln   <LLLLLLLLLLLLLLLLLLLLLLLLLLLLLLLLLLLLLLLLLLLLLLLLLLLLLLLLLLLLLLLLLLLLLLLLLLLLLLLLLLLLLLLLLLLLLLLLLLLLLLLLLLLLLLLLLLLLL>   m",
"Ln   ,LLLLLLLLLLLLLLLLLLLLLLLLLLLLLLLLLLLLLLLLLLLLLLLLLLLLLLLLLLLLLLLLLLLLLLLLLLLLLLLLLLLLLLLLLLLLLLLLLLLLLLLLLLLLLLLLLLLLL>   m",
"Lb   <LLLLLLLLLLLLLLLLLLLLLLLLLLLLLLLLLLLLLLLLLLLLLLLLLLLLLLLLLLLLLLLLLLLLLLLLLLLLLLLLLLLLLLLLLLLLLLLLLLLLLLLLLLLLLLLLLLLLL>   m",
"Ln   <LLLLLLLLLLLLLLLLLLLLLLLLLLLLLLLLLLLLLLLLLLLLLLLLLLLLLLLLLLLLLLLLLLLLLLLLLLLLLLLLLLLLLLLLLLLLLLLLLLLLLLLLLLLLLLLLLLLLL,   m",
"Ln   ,LLLLLLLLLLLLLLLLLLLLLLLLLLLLLLLLLLLLLLLLLLLLLLLLLLLLLLLLLLLLLLLLLLLLLLLLLLLLLLLLLLLLLLLLLLLLLLLLLLLLLLLLLLLLLLLLLLLLL>   m",
"Ln   <LLLLLLLLLLLLLLLLLLLLLLLLLLLLLLLLLLLLLLLLLLLLLLLLLLLLLLLLLLLLLLLLLLLLLLLLLLLLLLLLLLLLLLLLLLLLLLLLLLLLLLLLLLLLLLLLLLLLL>   m",
"Ln   ,LLLLLLLLLLLLLLLLLLLLLLLLLLLLLLLLLLLLLLLLLLLLLLLLLJMg32wzKLLLLLLLLLLLLLLLLLLLLLLLLLLLLLLLLLLLLLLLLLLLLLLLLLLLLLLLLLLLL>   m",
"Ln   ,LLLLLLLLLLLLLLLLLLLLLLLLLLLLLLLLLLLLLLLLLLLLLLLLB#      <FLLLLLLLLLLLLLLLLLLLLLLLLLLLLLLLLLLLLLLLLLLLLLLLLLLLLLLLLLLL>   n",
"Ln   ,LLLLLLLLbwwwmLLLLLLLLLLLLLLLLLLLLLLLLLLLLLLLLLLno         BLLLLLLLc2o. .oOO####$$$$%%%%&&&**>>>,,,<<4gALLLLLLLLLLLLLL>   m",
"Ln   ,LLLLLLw#     >bLLLLLLLLLLLLLLLLLLLLLLLLLLLLLLLZ           oLLLLLF<                                     qLLLLLLLLLLLLL>   n",
"Ln   ,LLLLL8         cLLLLLLLLLLLLLLLLLLLLLLLLLLLLLLj   T~)/E=   7LLLG$   eIPapiuytre:;-=@@XX                 2LLLLLLLLLLLL>   m",
"Ln   ,LLLL3           cLLLLLLLLLLLLLLLLLLLLLLLLLLLLL*  P______@  OLLL2  @^____________________))//~~!QEEYt     8LLLLLLLLLLL,   m",
"Ln   ,LLLZ   +raa=    >LLLLLLLLLLLLLLLLLLLLLLLLLLLLC  X)______R   BLm  +)_________________________________T     VLLLLLLLLLL>   n",
"Ln   ,LLLg  -~____P    mLLLLLLLLLLLLLLLLLLLLLLLLLLLz  y________+  wL7  R___________________________________P    qLLLLLLLLLL,   n",
"Ln   ,LLL*  !______P   qLLLLLLLLLLLLLLLLLLLLLLLLLLLs  I________e  mL*  _____________________________________    *LLLLLLLLLL>   m",
"Lm   ,LLL> u_______~   <LLLLLLLLLLLLLLLLLLLLLLLLLLL>  Y________@  JL$  _____________________________________-   $LLLLLLLLLL,   n",
"Ln   ,LLL> a________+  #LLLLLLLLLLLLLLLLLLLLLLLLLLLo  E_______)  $LL$  _____________________________________@   *LLLLLLLLLL>   n",
"Lm   ,LLL3 p________;   DLLLLLLLLLLLLLLLLLLLLLLLLLL.  !_______~  oLL$ X____________________________________~    7LLLLLLLLLL,   n",
"Ln   >LLLf t________y   bLLLLLLLLLLLLLLLLLLLLLLLLLJ   )_______R  oLL$  ____________________________________t    nLLLLLLLLLL,   m",
"Lm   ,LLLb -________P   gLLLLLLLLLLLLLLLLLLLLLLLLLN  =________P  #LL$ X_________YTREEQ!~^^())_____________y    <LLLLLLLLLLL,   n",
"Lm   >LLLF  ________R   6LLLLLLLLLLNd44fVLLLLLLLLLj  r________y  ,LL$  ________)              X+@==;;eer:     $GLLLLLLLLLLL>   n",
"Ln   >LLLLO ^_______~   $LLLLLLLLB*      2SLLLLLLL6  p________;  lLL#  ________)                             <GLLLLLLLLLLLL,   n",
"Ln   ,LLLL, E_______)    KLLLLLLc         OBLLLLLL&  T________X  ALL$ X_________  o>*>*&&&%%%$$$$$####OOOO$3vLLLLLLLLLLLLLL,   n",
"Lm   >LLLLq U________@   CLLLLLA           #KLLLLL.  Q_______/  .LLL#  ________)  *LLLLLLLLLLLLLLLLLLLLLLLLLLLLLLLLLLLLLLLL,   n",
"Lm   ,LLLLz i________e   lLLLLL3     -t     wLLLLC   )_______E  &LLL# X_________  >LLLLLLLLLLLLLLLLLLLLLLLLLLLLLLLLLLLLLLLL,   n",
"Lm   >LLLLC e________i   0LLLLF    I)___R   .LLLLz  @________I  6LLL#  _________  >LLLLLLLLLLLLLLLLLLLLLLLLLLLLLLLLLLLLLLLL,   n",
"Lm   >LLLLL.=________I   >LLLLb   u______!   BLLLw  e________u  jLLL#  ________)  >LLLLLLLLLLLLLLLLLLLLLLLLLLLLLLLLLLLLLLLL,   n",
"Lm   >LLLLL& )_______E   oLLLLl   )_______u  9LLL<  i________:  mLLL#  ________)  ,LLLLLLLLLLLLLLLLLLLLLLLLLLLLLLLLLLLLLLLL<   n",
"Lm   >LLLLL7 ~_______/    SLLLc  =________R  $LLLO  Y________+  JLLLO X________)  ,LLLLLLLLLLLLLLLLLLLLLLLLLLLLLLLLLLLLLLLL,   n",
"Lm   ,LLLLLj R________X   cLLLZ  P________!  .LLG   !_______/  $LLLL#  _________  ,LLLLLLLLLLLLLLLLLLLLLLLLLLLLLLLLLLLLLLLL,   n",
"Lm   >LLLLLM a________:   wLLLK  T________)   VLN   ________E  4LLLL#  ________)  ,LLLLLLLLLLLLLLLLLLLLLLLLLLLLLLLLLLLLLLLL,   b",
"Lm   >LLLLLG t________i   <LLLA X(_________:  gLj  ;________P  jLLLL#  _________  ,LLLLLLLLLLLLLLLLLLLLLLLLLLLLLLLLLLLLLLLL,   n",
"Lm   >LLLLLLO-________U   OLLLm r__________P  <L6  u________t  BLLLLO  ________)  <LLLLLLLLLLLLLLLLLLLLLLLLLLLLLLLLLLLLLLLL,   b",
"Lm   >LLLLLL> )_______Q    GLL8 U__________Q  .L%  Y________=  KLLLLO  _________  <LLLLLLLLLLLLLLLLLLLLLLLLLLLLLLLLLLLLLLLL<   n",
"Lm   *LLLLLL9 !_______(    nLL$X/___________+  N   !_______(  %LLLLLO X________)  $lzcnBVZDGKLLLLLLLLLLLLLLLLLLLLLLLLLLLLLL<   b",
"LM   >LLLLLLl T________@   fLV y____________t  7   ________W  7LLLLLO  _________             ..O#%&,1379wcJLLLLLLLLLLLLLLLL<   b",
"Lm   >LLLLLLB a________e   3Lw R____________U  $  :________I  lLLLLLO  _________YIaiute;-@X               .dLLLLLLLLLLLLLLL,   b",
"LM   >LLLLLLJ r________p   $L&@)____________^     p________t  VLLLLLO  _____________________)/~QERYIPput@   2LLLLLLLLLLLLLL<   n",
"LM   >LLLLLLLO=________Y    B i______________=    R________@  LLLLLLO  __________________________________P   7LLLLLLLLLLLLL<   b",
"LM   >LLLLLLL< )_______Q    7 Q______________u    (_______/  &LLLLLLo  ___________________________________P   nLLLLLLLLLLLL<   b",
"Lm   >LLLLLLL0 ~_______/    #:_______________R   =________R  7LLLLLLo X____________________________________+  3LLLLLLLLLLLL<   b",
"LN   >LLLLLLLl R________X    U_______________(   y________p  zLLLLLLO  ____________________________________t  OLLLLLLLLLLLL<   b",
"LM   *LLLLLLLV P________-   X/________________;  Y________:  CLLLLLLo  ____________________________________y   LLLLLLLLLLLL<   b",
"Lm   >LLLLLLLJ u________t   u________^________a  ~________  .LLLLLLLo  ____________________________________-  .LLLLLLLLLLLL<   b",
"LM   >LLLLLLLL#:________a   E________P________W X________Q  >LLLLLLLo  ___________________________________R   &LLLLLLLLLLLL<   b",
"LM   >LLLLLLLL<+________Y  ;________(@^________X:________I  9LLLLLLLo  _________iaPUTRW!^/)______________EX   fLLLLLLLLLLLL<   b",
"LM   *LLLLLLLLq (_______W  I________Y Y________ri________t  zLLLLLLLo  ________)            +=-:ryupPUYYy    OJLLLLLLLLLLLL<   b",
"LN   >LLLLLLLLl !_______( +(________e y________IY________=  ZLLLLLLLo  _________                             bLLLLLLLLLLLLL<   b",
"LN   *LLLLLLLLV Y________@p________Q  +________~~_______(  .LLLLLLLL.  _________                           .bLLLLLLLLLLLLLL<   b",
"Lm   *LLLLLLLLJ p________r!________p   !________________E  >LLLLLLLL.  ________)  <Bmbcljgw0742,*%$Oo.   $wHLLLLLLLLLLLLLLL<   b",
"Lm   >LLLLLLLLLOe________T________)@   I________________P  0LLLLLLLL. X_________  3LLLLLLLLLLLLLLLLLLLLGKLLLLLLLLLLLLLLLLLL<   b",
"LN   *LLLLLLLLL<@________^________Y    e________________r  zLLLLLLLL.  _________  3LLLLLLLLLLLLLLLLLLLLLLLLLLLLLLLLLLLLLLLL<   b",
"LN   *LLLLLLLLLq (________________:     )_______________+  ZLLLLLLLL.  _________  3LLLLLLLLLLLLLLLLLLLLLLLLLLLLLLLLLLLLLLLL<   b",
"LN   *LLLLLLLLLl Q_______________E      E______________^  .LLLLLLLLL.  _________  4LLLLLLLLLLLLLLLLLLLLLLLLLLLLLLLLLLLLLLLL<   b",
"LM   *LLLLLLLLLV U_______________u      p______________R  >LLLLLLLLL.  ________)  4LLLLLLLLLLLLLLLLLLLLLLLLLLLLLLLLLLLLLLLL<   b",
"LN   >LLLLLLLLLJ i______________~    .  ;______________p  0LLLLLLLLL.  _________  4LLLLLLLLLLLLLLLLLLLLLLLLLLLLLLLLLLLLLLLL<   b",
"LN   *LLLLLLLLLLo:______________a    ,   /_____________e  zLLLLLLLLL.  _________  4LLLLLLLLLLLLLLLLLLLLLLLLLLLLLLLLLLLLLLLL<   b",
"LN   *LLLLLLLLLL&+_____________)=    bo  T_____________X  ALLLLLLLLL.  _________  6LLLLLLLLLLLLLLLLLLLLLLLLLLLLLLLLLLLLLLLL2   b",
"LM   >LLLLLLLLLL3 /____________Y    *L<  y____________~  oLLLLLLLLLL   ________)  5LLLLLLLLLLLLLLLLLLLLLLLLLLLLLLLLLLLLLLLL<   v",
"LN   *LLLLLLLLLLw E____________r    gLj  @____________Y  <LLLLLLLLLL.  _________  6LLLLLLLLLLLLLLLLLLLLLLLLLLLLLLLLLLLLLLLL<   b",
"LM   >LLLLLLLLLLk I___________Q    OFLV   !___________u  fLLLLLLLLLL   _________   .oO$%*,2360wdglzvnNVCSGLLLLLLLLLLLLLLLLL<   b",
"LN   *LLLLLLLLLLb u___________i    qLLLO  I___________;  nLLLLLLLLLL   _________                           #qDLLLLLLLLLLLLL<   b",
"LN   *LLLLLLLLLLA :__________(+   .CLLL3  r__________)X  GLLLLLLLLLL   _________;=+                          .zLLLLLLLLLLLL2   b",
"LN   *LLLLLLLLLLK.+__________U    7LLLLk  X__________Q  $LLLLLLLLLLL   _____________)/^!WRYIPiute;=+X          zLLLLLLLLLLL<   c",
"LN   *LLLLLLLLLLL$ /_________:    BLLLLC   E_________I  6LLLLLLLLLLL   ______________________________)(^!a      FLLLLLLLLLL<   v",
"LN   *LLLLLLLLLLL* !________Q    3LLLLLL#  a_________u  kLLLLLLLLLLL   ___________________________________!X    0LLLLLLLLLL2   v",
"LN   *LLLLLLLLLLL& R________a    mLLLLLL4  :_________-  BLLLLLLLLLLK  :____________________________________Y    #LLLLLLLLLL<   v",
"LN   &LLLLLLLLLLL# u_______)X   <LLLLLLLl   )________  .KLLLLLLLLLLK  ;_____________________________________X    KLLLLLLLLL1   v",
"LN   *LLLLLLLLLLL,  (______R    cLLLLLLLA   /_______/  OLLLLLLLLLLLL   _____________________________________-    GLLLLLLLLL<   b",
"LN   *LLLLLLLLLLLd   /____E    OLLLLLLLLL.  I_______P  *LLLLLLLLLLLL$  a____________________________________=    LLLLLLLLLL2   c",
"LB   *LLLLLLLLLLLV    aETa     <LLLLLLLLL>   Q_____W   lLLLLLLLLLLLLz   I__________________________________Q    <LLLLLLLLLL<   c",
"LN   *LLLLLLLLLLLL&           oLLLLLLLLLLM    P/)/p   OLLLLLLLLLLLLLL,   -pPUTRQ!^(________________________e    cLLLLLLLLLL2   b",
"LB   &LLLLLLLLLLLLLO          LLLLLLLLLLLL,           cLLLLLLLLLLLLLLL&             X@-:eyupPUTRQ!^()____Q:    2LLLLLLLLLLL2   c",
"LN   *LLLLLLLLLLLLLL<       $LLLLLLLLLLLLLL*         jLLLLLLLLLLLLLLLLLwo                            X@-@     <KLLLLLLLLLLL1   c",
"LN   &LLLLLLLLLLLLLLLj%. .O2LLLLLLLLLLLLLLLLw.     $bLLLLLLLLLLLLLLLLLLLLVfwdkgfw0632,*%#Oo.                 wLLLLLLLLLLLLL2   v",
"LB   &LLLLLLLLLLLLLLLLLLLLLLLLLLLLLLLLLLLLLLLLvw0fGLLLLLLLLLLLLLLLLLLLLLLLLLLLLLLLLLLLLLLLLLLJFACBmbcljfwqwzGLLLLLLLLLLLLLL2   c",
"LN   &LLLLLLLLLLLLLLLLLLLLLLLLLLLLLLLLLLLLLLLLLLLLLLLLLLLLLLLLLLLLLLLLLLLLLLLLLLLLLLLLLLLLLLLLLLLLLLLLLLLLLLLLLLLLLLLLLLLLL<   c",
"LB   &LLLLLLLLLLLLLLLLLLLLLLLLLLLLLLLLLLLLLLLLLLLLLLLLLLLLLLLLLLLLLLLLLLLLLLLLLLLLLLLLLLLLLLLLLLLLLLLLLLLLLLLLLLLLLLLLLLLLL2   v",
"LB   *LLLLLLLLLLLLLLLLLLLLLLLLLLLLLLLLLLLLLLLLLLLLLLLLLLLLLLLLLLLLLLLLLLLLLLLLLLLLLLLLLLLLLLLLLLLLLLLLLLLLLLLLLLLLLLLLLLLLL1   c",
"LB   &LLLLLLLLLLLLLLLLLLLLLLLLLLLLLLLLLLLLLLLLLLLLLLLLLLLLLLLLLLLLLLLLLLLLLLLLLLLLLLLLLLLLLLLLLLLLLLLLLLLLLLLLLLLLLLLLLLLLL2   c",
"LB   *LLLLLLLLLLLLLLLLLLLLLLLLLLLLLLLLLLLLLLLLLLLLLLLLLLLLLLLLLLLLLLLLLLLLLLLLLLLLLLLLLLLLLLLLLLLLLLLLLLLLLLLLLLLLLLLLLLLLL2   c",
"LB   &LLLLLLLLLLLLLLLLLLLLLLLLLLLLLLLLLLLLLLLLLLLLLLLLLLLLLLLLLLLLLLLLLLLLLLLLLLLLLLLLLLLLLLLLLLLLLLLLLLLLLLLLLLLLLLLLLLLLL2   c",
"LB   &LLLLLLLLLLLLLLLLLLLLLLLLLLLLLLLLLLLLLLLLLLLLLLLLLLLLLLLLLLLLLLLLLLLLLLLLLLLLLLLLLLLLLLLLLLLLLLLLLLLLLLLLLLLLLLLLLLLLL2   c",
"LB   &LLLLLLLLLLLLLLLLLLLLLLLLLLLLLLLLLLLLLLLLLLLLLLLLLLLLLLLLLLLLLLLLLLLLLLLLLLLLLLLLLLLLLLLLLLLLLLLLLLLLLLLLLLLLLLLLLLLLL2   v",
"LB   *LLLLLLLLLLLLLLLLLLLLLLLLLLLLLLLLLLLLLLLLLLLLLLLLLLLLLLLLLLLLLLLLLLLLLLLLLLLLLLLLLLLLLLLLLLLLLLLLLLLLLLLLLLLLLLLLLLLLL2   c",
"LB   &LLLLLLLLLLLLLLLLLLLLLLLLLLLLLLLLLLLLLLLLLLLLLLLLLLLLLLLLLLLLLLLLLLLLLLLLLLLLLLLLLLLLLLLLLLLLLLLLLLLLLLLLLLLLLLLLLLLLL2   c",
"LB   &LLLLLLLLLLLLLLLLLLLLLLLLLLLLLLLLLLLLLLLLLLLLLLLLLLLLLLLLLLLLLLLLLLLLLLLLLLLLLLLLLLLLLLLLLLLLLLLLLLLLLLLLLLLLLLLLLLLLL2   c",
"LB   &LLLLLLLLLLLLLLLLLLLLLLLLLLLLLLLLLLLLLLLLLLLLLLLLLLLLLLLLLLLLLLLLLLLLLLLLLLLLLLLLLLLLLLLLLLLLLLLLLLLLLLLLLLLLLLLLLLLLL2   c",
"LB   *LLLLLLLLLLLLLLLLLLLLLLLLLLLLLLLLLLLLLLLLLLLLLLLLLLLLLLLLLLLLLLLLLLLLLLLLLLLLLLLLLLLLLLLLLLLLLLLLLLLLLLLLLLLLLLLLLLLLL2   c",
"LB   %LLLLLLLLLLLLLLLLLLLLLLLLLLLLLLLLLLLLLLLLLLLLLLLLLLLLLLLLLLLLLLLLLLLLLLLLLLLLLLLLLLLLLLLLLLLLLLLLLLLLLLLLLLLLLLLLLLLLL2   c",
"LB   %LLLLLLLLLLLLLLLLLLLLLLLLLLLLLLLLLLLLLLLLLLLLLLLLLLLLLLLLLLLLLLLLLLLLLLLLLLLLLLLLLLLLLLLLLLLLLLLLLLLLLLLLLLLLLLLLLLLLL2   c",
"LB   %LLLLLLLLLLLLLLLLLLLLLLLLLLLLLLLLLLLLLLLLLLLLLLLLLLLLLLLLLLLLLLLLLLLLLLLLLLLLLLLLLLLLLLLLLLLLLLLLLLLLLLLLLLLLLLLLLLLLL2   c",
"LB   %LLLLLLLLLLLLLLLLLLLLLLLLLLLLLLLLLLLLLLLLLLLLLLLLLLLLLLLLLLLLLLLLLLLLLLLLLLLLLLLLLLLLLLLLLLLLLLLLLLLLLLLLLLLLLLLLLLLLL2   c",
"LV   &LLLLLLLLLLLLLLLLLLLLLLLLLLLLLLLLLLLLLLLLLLLLLLLLLLLLLLLLLLLLLLLLLLLLLLLLLLLLLLLLLLLLLLLLLLLLLLLLLLLLLLLLLLLLLLLLLLLLL2   c",
"LV   &LLLLLLLLLLLLLLLLLLLLLLLLLLLLLLLLLLLLLLLLLLLLLLLLLLLLLLLLLLLLLLLLLLLLLLLLLLLLLLLLLLLLLLLLLLLLLLLLLLLLLLLLLLLLLLLLLLLLL2   c",
"LB   &LLLLLLLLLLLLLLLLLLLLLLLLLLLLLLLLLLLLLLLLLLLLLLLLLLLLLLLLLLLLLLLLLLLLLLLLLLLLLLLLLLLLLLLLLLLLLLLLLLLLLLLLLLLLLLLLLLLLL2   c",
"LV   &LLLLLLLLLLLLLLLLLLLLLLLLLLLLLLLLLLLLLLLLLLLLLLLLLLLLLLLLLLLLLLLLLLLLLLLLLLLLLLLLLLLLLLLLLLLLLLLLLLLLLLLLLLLLLLLLLLLLL2   c",
"LV   %LLLLLLLLLLLLLLLLLLLLLLLLLLLLLLLLLLLLLLLLLLLLLLLLLLLLLLLLLLLLLLLLLLLLLLLLLLLLLLLLLLLLLLLLLLLLLLLLLLLLLLLLLLLLLLLLLLLLL3   c",
"LV   &LLLLLLLLLLLLLLLLLLLLLLLLLLLLLLLLLLLLLLLLLLLLLLLLLLLLLLLLLLLLLLLLLLLLLLLLLLLLLLLLLLLLLLLLLLLLLLLLLLLLLLLLLLLLLLLLLLLLL2   c",
"LV   &LLLLLLLLLLLLLLLLLLLLLLLLLLLLLLLLLLLLLLLLLLLLLLLLLLLLLLLLLLLLLLLLLLLLLLLLLLLLLLLLLLLLLLLLLLLLLLLLLLLLLLLLLLLLLLLLLLLLL2   z",
"LV   %LLLLLLLLLLLLLLLLLLLLLLLLLLLLLLLLLLLLLLLLLLLLLLLLLLLLLLLLLLLLLLLLLLLLLLLLLLLLLLLLLLLLLLLLLLLLLLLLLLLLLLLLLLLLLLLLLLLLL2   c",
"LV   &LLLLLLLLLLLLLLLLLLLLLLLLLLLLLLLLLLLLLLLLLLLLLLLLLLLLLLLLLLLLLLLLLLLLLLLLLLLLLLLLLLLLLLLLLLLLLLLLLLLLLLLLLLLLLLLLLLLLL3   c",
"LV   &wwwwwwwwwwwwwwwqwwwwqwqwqqqqqqqqqqq0qqq0q00q00000000000090000809080808088098888889888888878788877887777777777777777772   c",
"LV                                                                                                                             z",
"LV                                                                                                                             x",
"LV                                                                                                                             x",
"LVwddsddwddddddddddfddddfffddffffffffffgffgffggfggggggggggggggggggggggjgghgjhhhhgjjhjhgjjjjjjjjjjjjjjjjjjjkjjjjlljjkjlljklljkllz",
"LLLLLLLLLLLLLLLLLLLLLLLLLLLLLLLLLLLLLLLLLLLLLLLLLLLLLLLLLLLLLLLLLLLLLLLLLLLLLLLLLLLLLLLLLLLLLLLLLLLLLLLLLLLLLLLLLLLLLLLLLLLLLLLL"
};
