/* XPM */
static char *_c557a2a8d544653e1b3ad8d72cc2baa8N5oBAlcIS0lijXI[] = {
/* columns rows colors chars-per-pixel */
"80 80 187 2 ",
"   c #2F0908",
".  c #2D0505",
"X  c #3C0605",
"o  c #3B090A",
"O  c #330B0B",
"+  c #430505",
"@  c #4D0404",
"#  c #4E0709",
"$  c #460809",
"%  c #4A0909",
"&  c #530505",
"*  c #5D0404",
"=  c #56070A",
"-  c #52090A",
";  c #5C0A0A",
":  c #5E100E",
">  c #4E1615",
",  c #531B1A",
"<  c #5A1E1D",
"1  c #640505",
"2  c #6B0506",
"3  c #610807",
"4  c #6F0907",
"5  c #660708",
"6  c #6E0708",
"7  c #640A0A",
"8  c #6A090A",
"9  c #730605",
"0  c #7C0405",
"q  c #720807",
"w  c #7C0708",
"e  c #74090A",
"r  c #7B0A0A",
"t  c #760F10",
"y  c #7A0D10",
"u  c #641414",
"i  c #691514",
"p  c #651C1C",
"a  c #6C1C1B",
"s  c #721515",
"d  c #791716",
"f  c #731B1B",
"g  c #7A1B1B",
"h  c #58201F",
"j  c #5E2627",
"k  c #5F2C2C",
"l  c #6C2323",
"z  c #602827",
"x  c #602E2F",
"c  c #692929",
"v  c #752323",
"b  c #7B2323",
"n  c #732A2A",
"m  c #7B2B2B",
"M  c #613536",
"N  c #7D3130",
"B  c #703837",
"V  c #7F3A39",
"C  c #713334",
"Z  c #75423F",
"A  c #6B5150",
"S  c #774A47",
"D  c #840404",
"F  c #8B0405",
"G  c #820807",
"H  c #8C0807",
"J  c #830608",
"K  c #8C0708",
"L  c #840A0B",
"P  c #8B0A0B",
"I  c #920505",
"U  c #940709",
"Y  c #92090A",
"T  c #980A09",
"R  c #8D1111",
"E  c #811F20",
"W  c #822223",
"Q  c #882627",
"!  c #81302F",
"~  c #823132",
"^  c #833B3B",
"/  c #8B3C3F",
"(  c #8E4646",
")  c #824242",
"_  c #944A4B",
"`  c #984848",
"'  c #82504F",
"]  c #835150",
"[  c #855C5B",
"{  c #945352",
"}  c #9B5D5C",
"|  c #985455",
" . c #AA5C5C",
".. c #906060",
"X. c #9A6261",
"o. c #8F7D7D",
"O. c #957171",
"+. c #9C7374",
"@. c #A16363",
"#. c #AF6B6A",
"$. c #A56B6A",
"%. c #B26867",
"&. c #A07475",
"*. c #A47678",
"=. c #A87878",
"-. c #B97472",
";. c #B07877",
":. c #BE7C7C",
">. c #B37879",
",. c #C17F80",
"<. c #AA8C8C",
"1. c #B78483",
"2. c #BE8A89",
"3. c #B1898A",
"4. c #B79190",
"5. c #BF9596",
"6. c #BF9C9A",
"7. c #BBABAB",
"8. c #C68686",
"9. c #C68C8B",
"0. c #CF8989",
"q. c #CC8485",
"w. c #D28C8C",
"e. c #CA9494",
"r. c #CC9B99",
"t. c #D29799",
"y. c #DB9F9E",
"u. c #D09D9C",
"i. c #DAA09F",
"p. c #C7ABAA",
"a. c #CBAEAD",
"s. c #C5A3A2",
"d. c #D4A5A4",
"f. c #DFA3A3",
"g. c #D3A7A8",
"h. c #D5AEAF",
"j. c #DDACAC",
"k. c #C7B2AF",
"l. c #CFB0AE",
"z. c #CFAFB0",
"x. c #C2B5B5",
"c. c #C5BCBB",
"v. c #D7B4B2",
"b. c #DBBEBD",
"n. c #E0A6A5",
"m. c #E9AFAE",
"M. c #E3B1B2",
"N. c #EBB5B3",
"B. c #E4BDBD",
"V. c #E9BDBC",
"C. c #F4BEBE",
"Z. c #F2B5B4",
"A. c #EFC2BF",
"S. c #F3C0BF",
"D. c #D9BFC0",
"F. c #CCCACB",
"G. c #D2C2C2",
"H. c #DBC4C4",
"J. c #D3CACB",
"K. c #DBD0D1",
"L. c #DFDFDF",
"P. c #ECC2C2",
"I. c #F2C3C4",
"U. c #F2C8C9",
"Y. c #FCCCCB",
"T. c #FBC3C4",
"R. c #FCD0CF",
"E. c #EAD5D4",
"W. c #F3D4D3",
"Q. c #FDD4D4",
"!. c #FEDDDD",
"~. c #FFE0DE",
"^. c #E5E5E5",
"/. c #EDEDED",
"(. c #EBE5E5",
"). c #F7E3E2",
"_. c #FFE3E2",
"`. c #FFE9E7",
"'. c #FFE7E8",
"]. c #FFEAEB",
"[. c #FFF0EF",
"{. c #F8EFF0",
"}. c #F4F4F4",
"|. c #FFF5F5",
" X c #FFF8F6",
".X c #FEF7F8",
"XX c #FFFFFF",
/* pixels */
"XXXXXXXXXXXXXXXXXXXXXXXXXXXXXXXXXXXXXXXXXXXXXXXXXXXXXXXXXXXXXXXXXXXXXXXXXXXXXXXXXXXXXXXXXXXXXXXXXXXXXXXXXXXXXXXXXXXXXXXXXXXXXXXXXXXXXXXXXXXXXXXXXXXXXXXXXXXXXXXX",
"XXXXXXXXXXXXXXXXXXXXXXXXXXXXXXXXXXXXXXXXXXXXXXXXXXXXXXXXXXXXXXXXXXXXXXXXXXXXXXXXXXXXXXXXXXXXXXXXXXXXXXXXXXXXXXXXXXXXXXXXXXXXXXXXXXXXXXXXXXXXXXXXXXXXXXXXXXXXXXXX",
"XXXXXXXXXXXXXXXXXXXXXXXXXXXXXXXXXXXXXXXXXXXXXXXXXXXXXXXXXXXXXXXXXXXXXXXXXXXXXXXXXXXXXXXXXXXXXXXXXXXXXXXXXXXXXXXXXXXXXXXXXXXXXXXXXXXXXXXXXXXXXXXXXXXXXXXXXXXXXXXX",
"XXXXXXXXXXXXXXXXXXXXXXXXXXXXXXXXXXXXXXXXXXXXXXXXXXXXXXXXXXXXXXXXXXXXXXXXXXXXXXXXXXXXXXXXXXXXXXXXXXXXXXXXXXXXXXXXXXXXXXXXXXXXXXXXXXXXXXXXXXXXXXXXXXXXXXXXXXXXXXXX",
"XXXXXXXXXXXXXXXXXXXXXXXXXXXXXXXXXXXXXXXXXXXXXXXXXXXXXXXXXXXXXXXXXXXXXXXXXXXXXXXXXXXXXXXXXXXXXXXXXXXXXXXXXXXXXXXXXXXXXXXXXXXXXXXXXXXXXXXXXXXXXXXXXXXXXXXXXXXXXXXX",
"XXXXXXXXXXXXXXXXXXXXXXXXXXXXXXXXXXXXXXXXXXXXXXXXXXXXXXXXXXXXXXXXXXXXXXXXXXXXXXXXXXXXXXXXXXXXXXXXXXXXXXXXXXXXXXXXXXXXXXXXXXXXXXXXXXXXXXXXXXXXXXXXXXXXXXXXXXXXXXXX",
"XXXXXXXXXXXXXXXXXXXXXXXXXXXXXXXXXXXXXXXXXXXXXXXXXXXXXXXXXXXXXXXXXXXXXXXXXXXXXXXXXXXXXXXXXXXXXXXXXXXXXXXXXXXXXXXXXXXXXXXXXXXXXXXXXXXXXXXXXXXXXXXXXXXXXXXXXXXXXXXX",
"XXXXXXXXXXXXXXXXXXXXXXXXXXXXXXXXXXXXXXXXXXXXXXXXXX.XXXXXXX}.XXXX.X}.XXXXXX}.XXXX.X}.XXXX.XXXXXXXXXXXXX}.XXXXXX}.XXXXXXXXXXXXXXXXXXXXXXXXXXXXXXXXXXXXXXXXXXXXXXXX",
"XXXXXXXXXXXXXXXXXXXXXXXXXXXXXXXXXXXXXXXXXX}.}.XXXX}.XX}.^.^.XXXX/./.}.XX/.^.XXXX^./.XX.X^.}.XX}./.XX}.L./.XX.X^.XXXXXXXXXXXXXXXXXXXXXXXXXXXXXXXXXXXXXXXXXXXXXXXX",
"XXXXXXXXXXXXXXXXXXXXXXXXXXXXXXXXXXXXXXXXXX.X/.XXXXXXXXXX/./.XXXX}./..XXX}./.XXXX}.XXXXXX}.}.XX.X}.XXXX/./.XXXX/.XXXXXXXXXXXXXXXXXXXXXXXXXXXXXXXXXXXXXXXXXXXXXXXX",
"XXXXXXXXXXXXXXXXXXXXXXXXXXXXXXXXXXXXXXXXXXXXXXXXXXXXXXXXXXXXXXXXXXXXXXXXXXXXXXXXXXXXXXXXXXXXXXXXXXXXXXXXXXXXXXXXXXXXXXXXXXXXXXXXXXXXXXXXXXXXXXXXXXXXXXXXXXXXXXXX",
"XXXXXXXXXXXXXXXXXXXXXXXXXXXXXXXXXXXXXXXXXXXXXXXXXXXXXXXXXXXXXXXXXXXXXXXXXXXXXXXXXXXXXXXXXXXXXXXXXXXXXXXXXXXXXXXXXXXXXXXXXXXXXXXXXXXXXXXXXXXXXXXXXXXXXXXXXXXXXXXX",
"XXXXXXXXXXXXXXXXXXXXXXXXXXXXXXXXXXXXXXXXXXXXXXXXXXXXXXXXXXXXXXXXXXXXXXXXXXXXXXXXXX.XXXXXXXXXXXXXXXXXXXXXXXXXXXXXXXXXXXXXXXXXXXXXXXXXXXXXXXXXXXXXXXXXXXXXXXXXXXXX",
"XXXXXXXXXXXXXXXXXXXXXXXXXXXXXXXXXXXXXXXXXXXXXXXXXXXXXXXXXXXXXXXXXXXXXXXXXXXXXX{.J. X X XXXXXXXXXXXXXXXXXXXXXXXXXXXXXXXXXXXXXXXXXXXXXXXXXXXXXXXXXXXXXXXXXXXXXXXXX",
"XXXXXXXXXXXXXXXXXXXXXXXXXXXXXXXXXXXXXXXXXXXXXXXXXXXXXXXXXXXXXXXXXXXXXXXXXXXXXX].j X._.XX.XXXXXXXXXXXXXXXXXXXXXXXXXXXXXXXXXXXXXXXXXXXXXXXXXXXXXXXXXXXXXXXXXXXXXXX",
"XXXXXXXXXXXXXXXXXXXXXXXXXXXXXXXXXXXXXXXXXXXXXXXXXXXXXXXXXXXXXXXXXXXXXXXXXXXXXX].n * c g. X.X XXXXXXXXXXXXXXXXXXXXXXXXXXXXXXXXXXXXXXXXXXXXXXXXXXXXXXXXXXXXXXXXXXX",
"XXXXXXXXXXXXXXXXXXXXXXXXXXXXXXXXXXXXXXXXXXXXXXXXXXXXXXXXXXXXXXXXXXXXXXXXXXXXXX].v 2 8 ; | Q.|.XXXXXXXXXXXXXXXXXXXXXXXXXXXXXXXXXXXXXXXXXXXXXXXXXXXXXXXXXXXXXXXXXX",
"XXXXXXXXXXXXXXXXXXXXXXXXXXXXXXXXXXXXXXXXXXXXXXXXXXXXXXXXXXXXXXXXXXXXXXXXXXXXXX'.v 9 r e 7 a e.|. X XXXXXXXXXXXXXXXXXXXXXXXXXXXXXXXXXXXXXXXXXXXXXXXXXXXXXXXXXXXXX",
"XXXXXXXXXXXXXXXXXXXXXXXXXXXXXXXXXXXXXXXXXXXXXXXXXXXXXXXXXXXXXXXXXXXXXXXXXXXXXX'.b 9 r 0 w e 7 ( Y.|. X.XXXXXXXXXXXXXXXXXXXXXXXXXXXXXXXXXXXXXXXXXXXXXXXXXXXXXXXXX",
"XXXXXXXXXXXXXXXXXXXXXXXXXXXXXXXXXXXXXXXXXXXXXXXXXXXXXXXXXXXXXXXXXXXXXXXXXXXXXX`.W 0 0 L 0 w r 4 : 1.|.XX XXXXXXXXXXXXXXXXXXXXXXXXXXXXXXXXXXXXXXXXXXXXXXXXXXXXXXX",
"XXXXXXXXXXXXXXXXXXXXXXXXXXXXXXXXXXXXXXXXXXXXXXXXXXXXXXXXXXXXXXXXXXXXXXXXXXXXXX`.b 0 0 J 0 w w w e ; C B..X.XXXXXXXXXXXXXXXXXXXXXXXXXXXXXXXXXXXXXXXXXXXXXXXXXXXXX",
"XXXXXXXXXXXXXXXXXXXXXXXXXXXXXXXXXXXXXXXXXXXXXXXXXXXXXXXXXXXXXXXXXXXXXXXXXXXXXX`.b 0 0 0 w 0 0 w w e * % +.]..X XXXXXXXXXXXXXXXXXXXXXXXXXXXXXXXXXXXXXXXXXXXXXXXXX",
"XXXXXXXXXXXXXXXXXXXXXXXXXXXXXXXXXXXXXXXXXXXXXXXXXXXXXXXXXXXXXXXXXXXXXXXXXXXXXX].v 0 J D J 0 0 0 w w e 8 @ z h..X XXXXXXXXXXXXXXXXXXXXXXXXXXXXXXXXXXXXXXXXXXXXXXX",
"XXXXXXXXXXXXXXXXXXXXXXXXXXXXXXXXXXXXXXXXXXXXXXXXXXXXXXXXXXXXXXXXXXXXXXXXXX X XI.l 5 w L w 0 0 J J J J 9 1 & % ..!. X X XXXXXXXXXXXXXXXXXXXXXXXXXXXXXXXXXXXXXXXXX",
"XXXXXXXXXXXXXXXXXXXXXXXXXXXXXXXXXXXXXXXXXXXXXXXXXXXXXXXXXXXXXXXXXXXXXXXX X{.:.l C.} 3 e L 0 J J D D D L 9 6 3 & p r.|. XXXXXXXXXXXXXXXXXXXXXXXXXXXXXXXXXXXXXXXXX",
"XXXXXXXXXXXXXXXXXXXXXXXXXXXXXXXXXXXXXXXXXXXXXXXXXXXXXXXXXXXXXXXXXX.X X XV.^ 8 f ~..Xf.n 2 e r J G J D P L 9 4 8 ; - ' W. XXXXXXXXXXXXXXXXXXXXXXXXXXXXXXXXXXXXXXX",
"XXXXXXXXXXXXXXXXXXXXXXXXXXXXXXXXXXXXXXXXXXXXXXXXXXXXXXXXXXXXXXXX.XXX_.#.8 q L g !..X X_.$.: e L 0 J J D L 0 2 1 8 7 & > H.XXXXXXXXXXXXXXXXXXXXXXXXXXXXXXXXXXXXXX",
"XXXXXXXXXXXXXXXXXXXXXXXXXXXXXXXXXXXXXXXXXXXXXXXXXXXXXXXXXXXX X X.Xj.m q L P J g _.XX X X|.N.~ 8 e G D D P w 2 1 1 2 8 # p. XXXXXXXXXXXXXXXXXXXXXXXXXXXXXXXXXXXXX",
"XXXXXXXXXXXXXXXXXXXXXXXXXXXXXXXXXXXXXXXXXXXXXXXXXXXXXXXXXX X.X!. .6 w P P D J g ~.XXXXXX X X{.>.i 0 J F J 0 2 1 1 2 7 @ a.XX XXXXXXXXXXXXXXXXXXXXXXXXXXXXXXXXXXX",
"XXXXXXXXXXXXXXXXXXXXXXXXXXXXXXXXXXXXXXXXXXXXXXXXXXXXXX.X.X|.r.v e P U K K L 0 s ~.XXXXXXXXXX.X.XT.( e r r q 6 1 1 7 8 & z.XX XXXXXXXXXXXXXXXXXXXXXXXXXXXXXXXXXXX",
"XXXXXXXXXXXXXXXXXXXXXXXXXXXXXXXXXXXXXXXXXXXXXXXXXXXXXX|.Q.` 6 r P U F D F D J g _.XXXXXXXXXXXX X X|.e.a 1 w w 2 1 2 7 # l. XXXXXXXXXXXXXXXXXXXXXXXXXXXXXXXXXXXXX",
"XXXXXXXXXXXXXXXXXXXXXXXXXXXXXXXXXXXXXXXXXXXXXXXX X X|.2.u e P I I K F F D D D g !.XXXXXXXXXXXXXXXX X XY.{ 3 e e 1 1 3 @ a.XXXXXXXXXXXXXXXXXXXXXXXXXXXXXXXXXXXXXX",
"XXXXXXXXXXXXXXXXXXXXXXXXXXXXXXXXXXXXXXXXXXXXXX X XA.^ * e H I I I F F Y I F P d !.XX.XXXXXXXXXXXXXXX X X Xd.l 7 8 3 ; + p.XX XXXXXXXXXXXXXXXXXXXXXXXXXXXXXXXXXXX",
"XXXXXXXXXXXXXXXXXXXXXXXXXXXXXXXXXXXXXXXXXXXX X'.;.: 1 9 D F I I F F F F P P 9 a Y..X XXXXXXXXXXXXXXXXXXXXX X!.X.- @ : X k. XXXXXXXXXXXXXXXXXXXXXXXXXXXXXXXXXXXXX",
"XXXXXXXXXXXXXXXXXXXXXXXXXXXXXXXXXXXXXXXX X|.N.~ 4 r G D F F I I F D F P L 4 ( Z.^ 0.|. X.XXXXXXXXXXXXXXXXX.X.X Xv.x + o k.XX XXXXXXXXXXXXXXXXXXXXXXXXXXXXXXXXXXX",
"XXXXXXXXXXXXXXXXXXXXXXXXXXXXXXXXXXXXXXXX_.X.7 0 H F F F F I U U F D J 9 f 0.|.'.Q t ( Y..X XXXXXXXXXXXXXXXXXXX XXX'.+.  7.XX.XXXXXXXXXXXXXXXXXXXXXXXXXXXXXXXXXXX",
"XXXXXXXXXXXXXXXXXXXXXXXXXXXXXXXXXXXXXXW.l 1 r D F T I F D F U Y P w 3 | R. XXX_.W G w s 8.'.XX XXXXXXXXXXXXXXXXX.X.X Xc.J.XXXXXXXXXXXXXXXXXXXXXXXXXXXXXXXXXXXXXX",
"XXXXXXXXXXXXXXXXXXXXXXXXXXXXXXXXXX X Xb.* R P F I T I D D D D 0 9 b i.|.XX XXX`.E D K w 1 V V. X X XXXXXXXXXXXXXXXXXXXXXXXXXXXXXXXXXXXXXXXXXXXXXXXXXXXXXXXXXXXXX",
"XXXXXXXXXXXXXXXXXXXXXXXXXXXXXXXXXXXXXXB.2 P I F F F F D K J e 7 X.~. X XXXXXXX'.E F F D r 9 7 #.`..X.XXXXXXXXXXXXXXXXXXXXXXXXXXXXXXXXXXXXXXXXXXXXXXXXXXXXXXXXXXX",
"XXXXXXXXXXXXXXXXXXXXXXXXXXXXXXXXXX XXXB.q F I I F 0 D J r 2 ! m..X X XXXXXXXXX'.E D F F D J 0 2 c j. X.X XXXXXXXXXXXXXXXXXXXXXXXXXXXXXXXXXXXXXXXXXXXXXXXXXXXXXXX",
"XXXXXXXXXXXXXXXXXXXXXXXXXXXXXXXXXXXXXXB.4 P U U F D J 9 i ;.`. X XXXXXXXXXXXXX`.g D F F D D 0 J 9 ;  .!..X.XXXXXXXXXXXXXXXXXXXXXXXXXXXXXXXXXXXXXXXXXXXXXXXXXXXXX",
"XXXXXXXXXXXXXXXXXXXXXXXXXXXXXXXXXX XXXB.1 P U I P r 1 ^ C.|. XXXXXXXXXXXXXXXXX`.W D F F D D D F J 0 1 l r.|. X XXXXXXXXXXXXXXXXXXXXXXXXXXXXXXXXXXXXXXXXXXXXXXXXX",
"XXXXXXXXXXXXXXXXXXXXXXXXXXXXXXXXXXXXXXb.; L P P 9 i 2.|..X XXXXXXXXXXXXXXXXXXX`.Q D K F F F K F D D r 9 7 _ Y..X XXXXXXXXXXXXXXXXXXXXXXXXXXXXXXXXXXXXXXXXXXXXXXX",
"XXXXXXXXXXXXXXXXXXXXXXXXXXXXXXXXXX.X.Xb.@ 8 e 8 ` Y..X.X.XXXXXXXXXXXXXXXXX X X!.f w L J D K I F F D D 0 w r f 9.[. XXXXXXXXXXXXXXXXXXXXXXXXXXXXXXXXXXXXXXXXXXXXX",
"XXXXXXXXXXXXXXXXXXXXXXXXXXXXXXXXXXXXXXD.X + < r.|. X.XXXXXXXXXXXXXXXXXXX X|.f.V i.^ 4 0 J D D F F D D D F P r 8 / I..X.XXXXXXXXXXXXXXXXXXXXXXXXXXXXXXXXXXXXXXXXX",
"XXXXXXXXXXXXXXXXXXXXXXXXXXXXXXXXXXXX.XG.O [ !. X XXXXXXXXXXXXXXXXX X.X X!.} 7 a ~.{.:.i 2 r 0 D D D D D F F F L e : *.{.XXXXXXXXXXXXXXXXXXXXXXXXXXXXXXXXXXXXXXXX",
"XXXXXXXXXXXXXXXXXXXXXXXXXXXXXXXXXXXXXXK.7. X X XXXXXXXXXXXXXXXXXXX X|.t.p 2 e f !. X XU.) ; 9 G D D D D F F F L y * @ x E.XXXXXXXXXXXXXXXXXXXXXXXXXXXXXXXXXXXXXX",
"XXXXXXXXXXXXXXXXXXXXXXXXXXXXXXXXXXXX.XXXXXXXXXXXXXXXXXXXXXXXXX.X|.R._ 7 9 L 0 s _.XX XXX[.9.i 4 r J J F K D D J 6 * 7 $ p.XX}.XXXXXXXXXXXXXXXXXXXXXXXXXXXXXXXXXX",
"XXXXXXXXXXXXXXXXXXXXXXXXXXXXXXXXXXXXXXXX.XXXXXXXXXXXXXXXXXXX X].q.d 0 L D J 0 s ~.XXXX X X XQ.{ 3 9 r J r 0 J 0 1 * * # z..XXXXXXXXXXXXXXXXXXXXXXXXXXXXXXXXXXXXX",
"XXXXXXXXXXXXXXXXXXXXXXXXXXXXXXXXXXXXXXXXXXXXXXXXXXXXXX X X|.P.^ e P H F F D 0 s _.XXXXXXXXXX.X|.f.a 1 r w 0 r q * * 7 - z..X XXXXXXXXXXXXXXXXXXXXXXXXXXXXXXXXXXX",
"XXXXXXXXXXXXXXXXXXXXXXXXXXXXXXXXXXXXXXXXXXXXXXXXXXXXXX X'.-.e 9 P P F F D D 0 s _.XXXXXXXXXXXX X.X_.$.: 9 r 4 1 1 1 7 = v..XXXXXXXXXXXXXXXXXXXXXXXXXXXXXXXXXXXXX",
"XXXXXXXXXXXXXXXXXXXXXXXXXXXXXXXXXXXXXXXXXXXXXXXX X X.XM.~ q L I F F F D F D 0 f ~.XXXXXXXXXXXXXX X.X.Xm.m 7 ; * 1 1 7 ; h. XXXXXXXXXXXXXXXXXXXXXXXXXXXXXXXXXXXXX",
"XXXXXXXXXXXXXXXXXXXXXXXXXXXXXXXXXXXXXXXXXXXXXX XXX_.@.7 e L F F F F F D F D 0 f ~.XXXXXXXXXXXXXXXXXX X X'.=.$ @ 7 8 8 # z..XXXXXXXXXXXXXXXXXXXXXXXXXXXXXXXXXXXXX",
"XXXXXXXXXXXXXXXXXXXXXXXXXXXXXXXXXXXXXXXXXX.X X.Xs.< * r J F F I F F F F D G r a _.XXXXXXXXXXXXXXXXXXXXXXXX XA.B @ ; 7 @ +. X XXXXXXXXXXXXXXXXXXXXXXXXXXXXXXXXXXX",
"XXXXXXXXXXXXXXXXXXXXXXXXXXXXXXXXXXXXXXXX X.XQ.] + & 8 e J D F D F F F H P q m d. XXXXXXXXXXXXXXXXXXXXXXXXX XXX|.&.$ ; : > b.XX.XXXXXXXXXXXXXXXXXXXXXXXXXXXXXXXXX",
"XXXXXXXXXXXXXXXXXXXXXXXXXXXXXXXXXXXXXXXX X4., # ; * 1 2 0 D D D D J L 9 4 %.!.|.XXXXXXXXXXXXXXXXXXXXXXXXXXXX.XXX X3.% % k <.K.XXXXXXXXXXXXXXXXXXXXXXXXXXXXXXXXXX",
"XXXXXXXXXXXXXXXXXXXXXXXXXXXXXXXXXXXXXX~.Z + ; * * * * 1 r G D D F 0 2 N M. X X.XXXXXXXXXXXXXXXXXXXXXXXXXXXXXXXXXXX|.6.O <. X(..XXXXXXXXXXXXXXXXXXXXXXXXXXXXXXXXX",
"XXXXXXXXXXXXXXXXXXXXXXXXXXXXXXXXXXXXXXb.% 7 1 2 1 1 1 1 9 L L L w s -.'.XX XXXXXXXXXXXXXXXXXXXXXXXXXXXXXXXXXXXXX.X X'.A x.XXXXXXXXXXXXXXXXXXXXXXXXXXXXXXXXXXXXXX",
"XXXXXXXXXXXXXXXXXXXXXXXXXXXXXXXXXX.XXXb.# 8 4 2 2 4 1 * 1 e r 8 ^ P.|. X XXXXXXXXXXXXXXXXXXXXXXXXXXXXXXXXXXXXXXXXXXX{.c.|.XXXXXXXXXXXXXXXXXXXXXXXXXXXXXXXXXXXXXX",
"XXXXXXXXXXXXXXXXXXXXXXXXXXXXXXXXXX.XXXD.@ 1 q 4 2 4 * * ; & u 8.|. X.XXXXXXXXXXXXXXXXXXXXXXXXXXXXXXXXXXXXXXXXXXXXXXXXX7..XXXXXXXXXXXXXXXXXXXXXXXXXXXXXXXXXXXXXXX",
"XXXXXXXXXXXXXXXXXXXXXXXXXXXXXXXXXX}..Xb.% * 1 q 9 8 ; @ X S W. X|.XXXXXXXXXXXXXXXXXXXXXXXXXXXXXXXXXXXXXXXXXXXXXXXXXXXXF.}.XXXXXXXXXXXXXXXXXXXXXXXXXXXXXXXXXXXXXX",
"XXXXXXXXXXXXXXXXXXXXXXXXXXXXXXXXXXXXXXD.$ * 1 2 8 * @ , 6. XXXXXXXXXXXXXXXXXXXXXXXXXXXXXXXXXXXXXXXXXXXXXXXXXXXXXXXXXXXXXXXXXXXXXXXXXXXXXXXXXXXXXXXXXXXXXXXXXXXXX",
"XXXXXXXXXXXXXXXXXXXXXXXXXXXXXXXXXXXXXXb.+ & & ; & $ [ )..X X.XXXXXXXXXXXXXXXXXXXXXXXXXXXXXXXXXXXXXXXXXXXXXXXXXXXXXXXXXXXXXXXXXXXXXXXXXXXXXXXXXXXXXXXXXXXXXXXXXXX",
"XXXXXXXXXXXXXXXXXXXXXXXXXXXXXXXXXX.XXXD.+ - # + k h..X.XXXXXXXXXXXXXXXXXXXXXXXXXXXXXXXXXXXXXXXXXXXXXXXXXXXXXXXXXXXXXXXXXXXXXXXXXXXXXXXXXXXXXXXXXXXXXXXXXXXXXXXXX",
"XXXXXXXXXXXXXXXXXXXXXXXXXXXXXXXXXXXXXXD.o + o O.]..X XXXXXXXXXXXXXXXXXXXXXXXXXXXXXXXXXXXXXXXXXXXXXXXXXXXXXXXXXXXXXXXXXXXXXXXXXXXXXXXXXXXXXXXXXXXXXXXXXXXXXXXXXXX",
"XXXXXXXXXXXXXXXXXXXXXXXXXXXXXXXXXX.XXXG.. M b. X.XXXXXXXXXXXXXXXXXXXXXXXXXXXXXXXXXXXXXXXXXXXXXXXXXXXXXXXXXXXXXXXXXXXXXXXXXXXXXXXXXXXXXXXXXXXXXXXXXXXXXXXXXXXXXXX",
"XXXXXXXXXXXXXXXXXXXXXXXXXXXXXXXXXX XXXG.o.|.XX XXXXXXXXXXXXXXXXXXXXXXXXXXXXXXXXXXXXXXXXXXXXXXXXXXXXXXXXXXXXXXXXXXXXXXXXXXXXXXXXXXXXXXXXXXXXXXXXXXXXXXXXXXXXXXXXX",
"XXXXXXXXXXXXXXXXXXXXXXXXXXXXXXXXXXXXXXXXXX XXXXXXXXXXXXXXXXXXXXXXXXXXXXXXXXXXXXXXXXXXXXXXXXXXXXXXXXXXXXXXXXXXXXXXXXXXXXXXXXXXXXXXXXXXXXXXXXXXXXXXXXXXXXXXXXXXXXX",
"XXXXXXXXXXXXXXXXXXXXXXXXXXXXXXXXXXXXXXXXXX.XXXXXXXXXXXXXXXXXXXXXXXXXXXXXXXXXXXXXXXXXXXXXXXXXXXXXXXXXXXXXXXXXXXXXXXXXXXXXXXXXXXXXXXXXXXXXXXXXXXXXXXXXXXXXXXXXXXXX",
"XXXXXXXXXXXXXXXXXXXXXXXXXXXXXXXXXXXXXXXXXXXXXXXXXXXXXXXXXXXXXXXXXXXXXXXXXXXXXXXX}.XXXXXXXXXXXXXXXXXXXXXXXXXXXXXXXXXXXXXXXXXXXXXXXXXXXXXXXXXXXXXXXXXXXXXXXXXXXXXX",
"XXXXXXXXXXXXXXXXXXXXXXXXXXXXXXXXXXXXXXXXXXXXXXXXXXXXXXXXXXXXXXXXXXXXXXXXXXXXXX/./.}.XXXXXXXXXXXXXXXXXXXXXXXXXXXXXXXXXXXXXXXXXXXXXXXXXXXXXXXXXXXXXXXXXXXXXXXXXXXX",
"XXXXXXXXXXXXXXXXXXXXXXXXXXXXXXXXXXXXXXXXXXXXXXXXXXXXXXXXXXXXXXXXXXXXXXXXXXXXXX/./.}.XXXXXXXXXXXXXXXXXXXXXXXXXXXXXXXXXXXXXXXXXXXXXXXXXXXXXXXXXXXXXXXXXXXXXXXXXXXX",
"XXXXXXXXXXXXXXXXXXXXXXXXXXXXXXXXXXXXXXXXXXXXXXXXXXXXXXXXXXXXXXXXXXXXXXXXXXXX}./..XXXXXXXXXXXXXXXXXXXXXXXXXXXXXXXXXXXXXXXXXXXXXXXXXXXXXXXXXXXXXXXXXXXXXXXXXXXXXXX",
"XXXXXXXXXXXXXXXXXXXXXXXXXXXXXXXXXXXXXXXXXXXXXXXXXXXXXXXXXXXXXXXXXXXXXXXXXXXXXXXXXXXXXXXXXXXXXXXXXXXXXXXXXXXXXXXXXXXXXXXXXXXXXXXXXXXXXXXXXXXXXXXXXXXXXXXXXXXXXXXX",
"XXXXXXXXXXXXXXXXXXXXXXXXXXXXXXXXXXXXXXXXXXXXXXXXXXXXXXXXXXXXXXXXXXXXXXXXXXXXXXXXXXXXXXXXXXXXXXXXXXXXXXXXXXXXXXXXXXXXXXXXXXXXXXXXXXXXXXXXXXXXXXXXXXXXXXXXXXXXXXXX",
"XXXXXXXXXXXXXXXXXXXXXXXXXXXXXXXXXXXXXXXXXXXXXXXXXXXXXXXXXXXXXXXXXXXXXXXXXXXXXXXXXXXXXXXXXXXXXXXXXXXXXXXXXXXXXXXXXXXXXXXXXXXXXXXXXXXXXXXXXXXXXXXXXXXXXXXXXXXXXXXX",
"XXXXXXXXXXXXXXXXXXXXXXXXXXXXXXXXXXXXXXXXXXXXXXXXXXXXXXXXXXXXXXXXXXXXXXXXXXXXXXXXXXXXXXXXXXXXXXXXXXXXXXXXXXXXXXXXXXXXXXXXXXXXXXXXXXXXXXXXXXXXXXXXXXXXXXXXXXXXXXXX",
"XXXXXXXXXXXXXXXXXXXXXXXXXXXXXXXXXXXXXXXXXXXXXXXXXXXXXXXXXXXXXXXXXXXXXXXXXXXXXXXXXXXXXXXXXXXXXXXXXXXXXXXXXXXXXXXXXXXXXXXXXXXXXXXXXXXXXXXXXXXXXXXXXXXXXXXXXXXXXXXX",
"XXXXXXXXXXXXXXXXXXXXXXXXXXXXXXXXXXXXXXXXXXXXXXXXXXXXXXXXXXXXXXXXXXXXXXXXXXXXXXXXXXXXXXXXXXXXXXXXXXXXXXXXXXXXXXXXXXXXXXXXXXXXXXXXXXXXXXXXXXXXXXXXXXXXXXXXXXXXXXXX",
"XXXXXXXXXXXXXXXXXXXXXXXXXXXXXXXXXXXXXXXXXXXXXXXXXXXXXXXXXXXXXXXXXXXXXXXXXXXXXXXXXXXXXXXXXXXXXXXXXXXXXXXXXXXXXXXXXXXXXXXXXXXXXXXXXXXXXXXXXXXXXXXXXXXXXXXXXXXXXXXX"
};
