/* XPM */
static char *_589607746882[] = {
/* columns rows colors chars-per-pixel */
"64 64 256 2 ",
"   c gray1",
".  c #0303AB",
"X  c #03AB03",
"o  c #03ABAB",
"O  c #AB0303",
"+  c #AB03AB",
"@  c #AB5703",
"#  c gray67",
"$  c gray34",
"%  c #5757FF",
"&  c #57FF57",
"*  c #57FFFF",
"=  c #FF5757",
"-  c #FF57FF",
";  c #FFFF57",
":  c white",
">  c #EFEFEF",
",  c #DFDFDF",
"<  c LightGray",
"1  c #C3C3C3",
"2  c #B7B7B7",
"3  c gray67",
"4  c #9B9B9B",
"5  c gray56",
"6  c gray50",
"7  c gray45",
"8  c #676767",
"9  c gray34",
"0  c #4B4B4B",
"q  c gray23",
"w  c #2F2F2F",
"e  c #232323",
"r  c #FF0303",
"t  c #EF0303",
"y  c #E30303",
"u  c #D70303",
"i  c #CB0303",
"p  c #BF0303",
"a  c #B30303",
"s  c #A70303",
"d  c #9B0303",
"f  c #8B0303",
"g  c #7F0303",
"h  c #730303",
"j  c #670303",
"k  c #5B0303",
"l  c #4F0303",
"z  c #430303",
"x  c #FFDBDB",
"c  c #FFBBBB",
"v  c #FF9F9F",
"b  c #FF7F7F",
"n  c #FF5F5F",
"m  c #FF4343",
"M  c #FF2323",
"N  c #FF0303",
"B  c #FFAB5F",
"V  c #FF9B43",
"C  c #FF8B23",
"Z  c #FF7B03",
"A  c #E76F03",
"S  c #CF6303",
"D  c #B75703",
"F  c #9F4F03",
"G  c #FFFFDB",
"H  c #FFFFBB",
"J  c #FFFF9F",
"K  c #FFFF7F",
"L  c #FFFB5F",
"P  c #FFF743",
"I  c #FFF723",
"U  c #FFF703",
"Y  c #E7DB03",
"T  c #CFC703",
"R  c #B7AF03",
"E  c #9F9F03",
"W  c #878703",
"Q  c #736F03",
"!  c #5B5703",
"~  c #434303",
"^  c #D3FF5F",
"/  c #C7FF43",
"(  c #B7FF23",
")  c #A3FF03",
"_  c #93E703",
"`  c #83CF03",
"'  c #77B703",
"]  c #639F03",
"[  c #DBFFDB",
"{  c #BFFFBB",
"}  c #9FFF9F",
"|  c #83FF7F",
" . c #63FF5F",
".. c #43FF43",
"X. c #23FF23",
"o. c #03FF03",
"O. c #03FF03",
"+. c #03EF03",
"@. c #03E303",
"#. c #03D703",
"$. c #07CB03",
"%. c #07BF03",
"&. c #07B303",
"*. c #07A703",
"=. c #079B03",
"-. c #078B03",
";. c #077F03",
":. c #077303",
">. c #076703",
",. c #075B03",
"<. c #074F03",
"1. c #074303",
"2. c #DBFFFF",
"3. c #BBFFFF",
"4. c #9FFFFF",
"5. c #7FFFFB",
"6. c #5FFFFF",
"7. c #43FFFF",
"8. c #23FFFF",
"9. c #03FFFF",
"0. c #03E7E7",
"q. c #03CFCF",
"w. c #03B7B7",
"e. c #039F9F",
"r. c #038787",
"t. c #037373",
"y. c #035B5B",
"u. c #034343",
"i. c #5FBFFF",
"p. c #43B3FF",
"a. c #23ABFF",
"s. c #039FFF",
"d. c #038FE7",
"f. c #037FCF",
"g. c #036FB7",
"h. c #035F9F",
"j. c #DBDBFF",
"k. c #BBBFFF",
"l. c #9F9FFF",
"z. c #7F83FF",
"x. c #5F63FF",
"c. c #4343FF",
"v. c #2327FF",
"b. c #0307FF",
"n. c #0303FF",
"m. c #0303EF",
"M. c #0303E3",
"N. c #0303D7",
"B. c #0303CB",
"V. c #0303BF",
"C. c #0303B3",
"Z. c #0303A7",
"A. c #03039B",
"S. c #03038B",
"D. c #03037F",
"F. c #030373",
"G. c #030367",
"H. c #03035B",
"J. c #03034F",
"K. c #030343",
"L. c gray17",
"P. c #FFE337",
"I. c #FFD727",
"U. c #FFCF1B",
"Y. c #FFC30B",
"T. c #FFB703",
"R. c #033B03",
"E. c #032B03",
"W. c #9B03E7",
"Q. c #8303CF",
"!. c #7703B7",
"~. c #63039F",
"^. c #530387",
"/. c #470373",
"(. c #37035B",
"). c #2B0343",
"_. c #FFDBFF",
"`. c #FFBBFF",
"'. c #FF9FFF",
"]. c #FF7FFF",
"[. c #FF5FFF",
"{. c #FF43FF",
"}. c #FF23FF",
"|. c #FF03FF",
" X c #E303E7",
".X c #CB03CF",
"XX c #B703B7",
"oX c #9F039F",
"OX c #870387",
"+X c #6F0373",
"@X c #5B035B",
"#X c #430343",
"$X c #FFEBDF",
"%X c #FFE3D3",
"&X c #FFDBC7",
"*X c #FFD7BF",
"=X c #FFCFB3",
"-X c #FFC7A7",
";X c #FFBF9F",
":X c #FFBB93",
">X c #FFB383",
",X c #FFA773",
"<X c #FF9F63",
"1X c #F3975F",
"2X c #EB8F5B",
"3X c #DF8B57",
"4X c #D38353",
"5X c #CB7F4F",
"6X c #BF7B4B",
"7X c #B77347",
"8X c #AB6B43",
"9X c #A3673F",
"0X c #9F633B",
"qX c #935F37",
"wX c #8B5B33",
"eX c #83532F",
"rX c #774F2B",
"tX c #6F4B27",
"yX c #5F4323",
"uX c #573F1F",
"iX c #4B3B1B",
"pX c #43331B",
"aX c #3B2F17",
"sX c #2B230F",
"dX c #630367",
"fX c #036767",
"gX c #036363",
"hX c #03031F",
"jX c #03032F",
"kX c #332713",
"lX c #4B034B",
"zX c #530353",
"xX c #030337",
"cX c gray12",
"vX c gray31",
"bX c #5F5F5F",
"nX c #434343",
"mX c gray20",
"MX c #373737",
"NX c #DBF7F7",
"BX c #BBEBEB",
"VX c #9FDFDF",
"CX c #77CBCB",
"ZX c #4BC3C3",
"AX c #23B7B7",
"SX c #23B3B3",
"DX c #03A7A7",
"FX c #039B9B",
"GX c #038F8F",
"HX c #038787",
"JX c #037F7F",
"KX c #037B7B",
"LX c #037777",
"PX c #037373",
"IX c #036F6F",
"UX c #9B038B",
/* pixels */
"qXqXqXqXqXqXqXqXqXqXqXqXqXqXqXqXqXqXqXqXqXqXqXqXqXqXqXqXqXqXqXqXqXqXqXqXqXqXqXqXqXqXqXqXqXqXqXqXqXqXqXqXqXqXqXqXqXqXqXqXqXqXqXqX",
"qX# rXrXrXrXrXrXrXrXrXrXrXrXrXrXrXrXrXrXrXrXrXrXrXrXrXrXrXrXrXrXrXrXrXrXrXrXrXrXrXrXrXrXrXrXrXrXrXrXrXrXrXrXrXrXrXrXrXrXrXrX# uX",
"qXrXuXuXuXuXuXuXuXuXuXuXuXuXuXuXuXuXuXuXuXuXuXuXuXuXuXuXuXuXuXuXuXuXuXuXuXuXuXuXuXuXuXuXuXuXuXuXuXuXuXuXuXuXuXuXuXuXuXuXuXuXrXuX",
"qXrXuX4 5 5 4 4 5 4 4 3 5 3 5 4 5 3 4 3 4 4 3 4 3 4 4 4 3 4 3 4 4 3 4 4 4 3 4 3 3 3 3 4 3 5 4 3 5 4 3 4 4 5 4 4 3 3 4 4 4 qXrXuX",
"qXrXuX5 4 4 4 1 4 4 3 3 4 4 5 5 3 4 3 4 4 3 5 4 4 4 5 3 5 1 5 5 4 4 4 3 4 4 3 5 4 3 3 4 4 5 4 5 4 4 4 4 4 4 4 3 4 1 4 4 5 qXrXuX",
"qXrXuX3 4 5 3 4 4 5 3 4 5 4 5 3 4 4 3 3 4 4 4 4 4 5 3 3 4 4 4 5 5 4 4 4 5 4 3 3 4 4 4 4 4 4 4 4 4 5 4 3 4 3 4 4 4 4 4 5 4 qXrXuX",
"qXrXuX4 3 4 4 4 3 3 4 4 4 5 4 4 4 3 4 4 3 3 4 3 5 5 4 4 5 5 4 3 5 3 3 4 3 3 4 4 3 5 4 4 4 4 4 4 3 4 4 3 4 4 5 4 5 4 4 3 3 qXrXuX",
"qXrXuX4 4 4 3 4 3 5 5 4 5 5 4 5 4 4 4 3 3 5 4 4 3 5 4 3 5 3 4 4 3 3 4 4 3 4 4 5 5 5 4 5 5 4 4 3 4 4 4 4 4 3 4 4 4 4 4 4 4 qXrXuX",
"qXrXuX5 3 4 5 5 4 4 3 3 4 5 4 4 4 4 5 3 4 4 5 5 4 3 3 5 4 4 4 3 4 4 3 3 3 4 4 5 4 4 5 1 4 4 3 4 4 4 5 4 4 4 5 5 4 4 3 5 5 qXrXuX",
"qXrXuX4 4 4 5 4 4 5 3 5 4 4 5 4 3 4 5 5 4 3 5 3 4 4 5 5 4 3 3 3 3 4 3 4 4 4 4 4 4 5 4 4 3 4 4 4 4 3 4 4 3 4 4 5 4 5 3 3 4 qXrXuX",
"qXrXuX3 5 3 4 4 4 5 4 4 5 3 4 4 4 4 1 4 5 5 4 4 4 4 4 5 4 4 4 3 4 4 4 4 3 5 4 4 5 4 3 4 3 3 3 4 3 5 4 4 5 4 3 4 3 3 4 5 5 qXrXuX",
"qXrXuX4 5 5 4 5 4 4 5 4 5 5 4 5 4 3 4 5 5 3 4 5 3 4 4 4 3 4 4 4 4 5 4 5 5 5 4 3 5 5 4 4 4 3 4 4 3 3 5 4 5 5 4 4 4 3 4 4 4 qXrXuX",
"qXrXuX5 3 4 3 5 4 4 3 3 4 4 3 5 4 4 3 4 3 4 4 4 4 4 3 4 4 4 4 3 5 4 5 4 5 4 3 4 4 3 4 4 3 4 3 4 4 3 5 5 5 4 5 4 5 4 5 5 4 qXrXuX",
"qXrXuX4 4 4 5 5 4 5 3 4 4 5 5 5 3 4 4 4 4 4 5 4 3 4 4 4 4 3 4 4 4 4 5 5 4 4 4 4 4 4 4 5 4 4 3 3 4 4 5 3 4 4 4 4 4 4 5 4 4 qXrXuX",
"qXrXuX4 4 5 4 4 4 4 4 4 4 5 4 3 3 4 4 3 5 5 5 4 4 4 4 4 4 4 5 4 3 5 4 3 4 4 4 4 4 4 4 4 4 4 3 4 5 4 4 4 3 3 3 4 4 3 4 4 5 qXrXuX",
"qXrXuX4 5 5 5 4 4 5 4 3 4 4 4 4 3 3 4 4 5 3 4 4 4 3 5 4 3 4 4 4 3 3 4 4 3 4 4 5 5 4 3 4 5 4 4 4 4 4 4 3 3 5 4 4 4 4 5 4 4 qXrXuX",
"qXrXuX4 4 5 4 4 5 4 5 4 4 4 4 4 5 4 3 3 4 3 3 3 4 5 3 3 4 4 1 4 5 4 3 3 5 4 5 5 4 4 3 3 4 4 3 3 4 4 3 3 4 4 3 3 4 4 3 4 4 qXrXuX",
"qXrXuX4 4 4 4 5 4 4 5 5 5 4 4 3 4 4 5 3 4 4 4 3 4 4 5 3 4 3 4 5 4 4 5 3 4 4 5 3 4 3 3 5 3 4 4 3 5 4 5 3 4 3 3 4 3 4 3 3 5 qXrXuX",
"qXrXuX5 4 3 4 4 5 3 4 4 4 3 4 3 3 4 4 5 5 5 3 4 4 5 3 4 3 3 4 4 5 5 4 4 4 3 4 4 4 4 4 5 3 3 4 4 4 3 4 4 4 5 4 4 5 3 4 4 5 qXrXuX",
"qXrXuX1 4 4 4 5 3 3 5 4 4 4 4 4 4 4 4 4 5 4 4 4 5 5 4 4 3 4 3 4 4 5 3 4 4 4 5 4 4 3 4 4 3 4 4 5 3 3 3 4 4 4 5 4 5 5 4 3 4 qXrXuX",
"qXrXuX4 4 3 5 5 4 3 5 3 4 3 3 5 4 4 5 5 4 3 5 4 3 4 4 4 4 4 3 5 4 4 5 5 4 3 4 4 4 4 5 4 4 3 3 5 4 4 5 5 4 4 5 3 4 4 5 5 4 qXrXuX",
"qXrXuX4 4 4 5 3 4 4 5 5 4 4 5 5 4 3 4 5 4 4 4 4 4 4 3 4 4 5 5 5 3 4 3 5 4 4 4 5 3 4 5 5 4 4 3 3 4 5 4 5 5 4 5 5 4 3 5 4 4 qXrXuX",
"qXrXuX4 4 3 4 4 3 3 4 4 4 3 3 4 3 3 4 4 4 4 4 4 3 5 4 4 3 3 4 5 5 3 5 4 3 4 4 5 5 4 5 4 3 5 5 4 5 5 4 4 4 5 4 4 4 5 4 5 4 qXrXuX",
"qXrXuX5 4 4 4 3 5 3 4 5 4 4 4 4 4 3 5 4 4 5 5 4 3 3 5 4 5 3 4 4 3 3 4 4 4 4 4 4 5 5 4 4 5 5 4 1 5 4 4 3 4 4 3 4 4 4 4 4 4 qXrXuX",
"qXrXuX3 4 5 5 5 4 4 5 5 3 4 3 4 5 4 4 4 4 3 3 3 4 4 5 3 4 4 5 4 4 4 4 3 5 4 4 3 4 5 3 3 4 4 4 4 4 4 4 5 3 4 5 5 3 4 4 4 4 qXrXuX",
"qXrXuX5 4 4 4 5 3 4 4 5 4 4 4 4 4 4 1 5 4 4 5 3 4 3 3 3 3 4 4 4 4 5 3 3 4 4 4 4 4 4 3 5 4 5 4 5 3 4 5 5 4 4 5 3 4 4 4 3 4 qXrXuX",
"qXrXuX4 4 4 4 5 5 5 3 4 3 3 4 3 3 3 4 4 5 5 4 3 3 5 4 4 4 3 5 4 4 4 4 5 3 5 4 4 3 3 4 4 4 4 5 4 5 4 3 4 3 3 4 4 3 3 4 3 5 qXrXuX",
"qXrXuX4 3 4 4 4 5 4 4 4 3 4 4 4 3 4 5 4 3 5 4 4 3 3 3 4 4 4 4 4 4 5 4 4 5 5 4 5 4 3 3 4 4 3 4 4 5 5 4 4 3 5 4 3 4 3 4 4 5 qXrXuX",
"qXrXuX3 4 4 4 5 5 4 4 4 4 4 3 5 5 4 5 5 4 4 5 3 4 5 3 5 4 3 4 4 5 4 3 5 4 3 3 5 4 4 5 3 3 4 3 3 3 4 5 5 4 4 5 3 5 4 4 5 3 qXrXuX",
"qXrXuX3 5 4 1 4 4 4 4 3 3 4 5 5 4 4 3 5 4 5 5 5 4 4 3 3 4 4 4 3 4 4 5 5 4 4 5 5 4 5 5 5 4 4 3 5 4 4 5 4 5 4 3 3 4 4 4 4 4 qXrXuX",
"qXrXuX5 5 4 4 4 4 4 3 4 3 4 4 4 3 5 4 5 4 3 5 4 3 4 5 4 4 5 4 3 5 4 4 4 5 5 4 4 4 4 4 3 5 5 4 4 4 4 5 4 3 4 4 4 5 5 4 5 5 qXrXuX",
"qXrXuX4 5 5 4 3 3 4 4 4 3 3 4 5 3 3 4 4 3 3 4 4 3 3 4 4 5 5 4 4 1 4 3 4 3 5 4 3 3 4 4 4 4 5 5 4 5 4 4 4 4 4 3 4 5 3 4 4 5 qXrXuX",
"qXrXuX4 4 4 3 5 3 4 4 4 4 3 5 3 4 4 5 5 4 4 4 4 4 4 5 4 4 4 5 4 3 4 4 4 4 4 4 3 4 4 4 5 4 4 4 5 3 4 3 3 4 5 5 5 5 4 3 3 5 qXrXuX",
"qXrXuX5 5 4 5 5 4 4 5 4 4 4 3 3 5 4 5 3 5 4 5 4 3 4 4 4 4 3 4 4 4 4 5 4 5 4 4 4 4 3 4 4 5 4 5 5 4 4 4 3 4 4 5 4 4 4 3 4 4 qXrXuX",
"qXrXuX4 4 4 4 3 3 3 3 4 5 5 4 4 5 3 4 3 3 3 5 4 3 5 4 4 4 5 4 4 5 4 4 4 4 5 4 3 5 4 4 5 3 3 4 3 4 4 5 4 5 5 4 5 5 3 4 5 5 qXrXuX",
"qXrXuX4 4 5 4 4 4 3 4 4 4 5 4 5 3 3 4 4 3 4 4 4 5 5 3 4 5 5 4 3 4 4 5 4 4 4 4 4 5 5 4 4 3 5 4 4 4 5 4 4 5 4 4 4 5 5 4 4 5 qXrXuX",
"qXrXuX4 4 4 5 4 3 4 3 5 4 4 5 3 4 1 4 5 4 4 5 5 4 4 5 4 4 3 4 3 5 4 4 3 3 4 3 4 4 3 4 3 4 4 3 3 4 3 4 5 3 4 3 3 4 4 4 3 4 qXrXuX",
"qXrXuX5 4 3 5 5 4 4 3 3 4 5 5 5 4 5 5 5 3 4 5 3 3 4 4 4 4 4 4 4 4 4 3 3 4 4 4 4 4 4 4 4 3 4 4 3 4 4 5 5 4 4 5 3 4 5 4 1 4 qXrXuX",
"qXrXuX5 5 3 4 5 4 4 4 3 3 3 5 4 3 3 4 4 4 4 4 3 5 3 4 4 4 4 3 4 3 3 4 5 5 4 4 3 3 3 3 4 5 3 4 4 3 4 4 3 4 3 3 4 5 3 4 4 3 qXrXuX",
"qXrXuX4 3 3 4 4 4 3 4 4 4 3 4 4 3 5 3 4 4 5 4 4 3 3 4 5 5 4 4 4 5 3 4 4 5 5 4 4 3 5 4 4 3 3 5 4 3 3 4 4 3 3 4 4 5 5 5 4 3 qXrXuX",
"qXrXuX3 4 3 5 4 4 3 3 4 3 4 3 4 4 4 4 5 4 3 4 4 4 4 5 5 4 4 5 4 4 4 5 5 3 4 3 3 4 4 4 1 4 4 3 3 3 4 4 5 3 4 4 3 5 4 4 4 3 qXrXuX",
"qXrXuX4 4 4 4 4 4 4 3 3 4 4 4 4 4 5 5 5 4 4 4 3 4 5 5 4 4 5 5 5 5 4 4 5 4 4 4 3 5 4 5 4 3 4 3 5 4 4 5 5 4 4 3 3 4 4 4 5 4 qXrXuX",
"qXrXuX4 5 5 4 5 5 4 4 4 3 3 4 4 5 5 4 4 5 3 4 3 3 5 4 4 5 5 4 5 3 4 3 4 5 4 4 5 4 4 4 4 4 3 5 4 5 5 3 4 4 3 3 4 3 5 4 3 3 qXrXuX",
"qXrXuX5 5 3 4 4 4 4 3 4 3 4 5 4 5 3 5 4 3 3 4 4 3 3 3 4 5 4 4 4 3 3 4 4 4 4 4 4 4 3 5 4 4 4 4 4 5 3 4 4 3 3 4 4 3 3 4 4 4 qXrXuX",
"qXrXuX5 4 4 3 3 4 4 5 3 4 5 3 5 3 4 5 5 3 4 5 5 4 4 4 4 4 4 5 3 4 4 4 5 4 4 3 5 4 4 4 4 4 4 4 4 4 5 4 4 3 4 3 3 4 4 3 5 3 qXrXuX",
"qXrXuX4 4 5 4 3 5 4 3 3 4 4 5 5 4 4 5 4 4 4 3 5 4 3 5 4 5 1 5 5 3 4 5 5 4 5 3 3 4 5 3 4 4 5 4 3 4 4 4 5 4 4 5 3 4 3 5 5 4 qXrXuX",
"qXrXuX4 3 4 4 4 3 3 4 5 4 4 4 4 3 5 4 5 3 5 4 4 4 4 4 4 4 3 4 5 3 3 4 4 5 5 3 4 3 3 4 4 3 3 4 3 4 4 4 5 3 4 3 4 5 5 4 3 3 qXrXuX",
"qXrXuX5 4 4 5 4 3 4 4 4 4 3 5 4 3 3 4 4 5 5 4 3 3 4 4 3 4 4 4 4 4 3 4 5 3 5 4 4 3 4 3 4 5 3 4 4 4 3 4 4 4 4 4 4 3 5 4 4 1 qXrXuX",
"qXrXuX3 4 4 4 4 5 4 5 5 4 4 5 5 4 4 3 4 4 5 3 3 4 4 3 3 4 5 5 5 4 4 3 3 4 5 3 3 3 4 5 3 4 3 4 3 4 4 3 5 4 4 5 4 5 4 4 5 4 qXrXuX",
"qXrXuX5 5 4 4 3 4 4 5 3 3 4 4 5 5 4 3 3 4 4 3 4 3 4 3 5 4 4 5 3 4 3 5 3 4 4 5 3 4 4 5 5 4 4 4 4 4 3 5 5 4 5 5 5 4 4 4 4 4 qXrXuX",
"qXrXuX3 4 1 4 4 3 4 4 3 4 5 4 4 5 4 5 4 5 5 4 5 5 3 4 4 3 3 4 4 4 3 4 4 5 5 3 4 1 3 4 3 5 5 4 4 3 3 5 4 5 5 4 4 3 3 5 4 4 qXrXuX",
"qXrXuX4 4 3 4 5 4 4 4 4 5 5 5 4 5 5 4 4 4 5 4 4 5 5 4 5 5 3 4 3 3 3 3 4 5 3 4 4 4 4 4 4 4 5 3 4 4 3 4 4 3 5 4 3 5 3 4 4 5 qXrXuX",
"qXrXuX4 5 4 3 3 4 3 5 3 3 4 3 4 4 5 5 4 4 4 3 4 4 3 5 4 4 4 4 4 4 4 3 3 4 3 4 5 4 4 5 5 5 4 5 5 4 3 4 4 3 4 3 3 4 4 4 5 5 qXrXuX",
"qXrXuX5 4 4 3 4 4 4 5 5 4 4 4 4 4 4 5 5 5 4 3 3 4 4 5 5 4 3 4 3 4 3 3 5 4 4 4 4 4 3 5 4 4 4 5 4 4 4 5 4 4 4 5 3 3 4 5 5 4 qXrXuX",
"qXrXuX4 5 4 3 4 3 4 3 4 5 4 4 4 4 4 4 3 3 3 4 3 5 3 4 5 5 5 4 4 3 4 4 4 3 4 4 5 4 3 3 4 5 3 4 4 5 4 4 4 3 3 3 4 4 5 4 5 3 qXrXuX",
"qXrXuX4 4 4 4 4 4 4 4 4 4 4 4 3 4 3 4 4 5 3 4 4 5 5 4 4 4 5 4 3 3 3 4 5 3 3 4 4 4 4 4 4 5 5 3 4 4 4 4 3 3 4 4 4 4 4 4 4 5 qXrXuX",
"qXrXuX4 4 3 5 5 4 3 5 5 4 4 4 4 5 4 3 3 4 4 4 4 4 5 3 5 4 4 3 4 4 4 4 3 3 4 4 5 4 4 5 3 4 3 5 5 4 4 3 3 4 4 4 4 4 4 4 5 3 qXrXuX",
"qXrXuX4 4 4 4 5 4 4 5 4 3 4 3 4 4 4 3 5 4 5 4 5 4 4 5 5 4 3 3 3 4 5 4 4 4 4 5 5 5 4 5 5 4 4 3 5 4 3 4 3 3 4 5 4 4 5 5 5 4 qXrXuX",
"qXrXuX4 4 3 3 4 3 5 4 4 4 3 4 4 5 5 4 4 4 3 5 4 3 5 4 5 5 5 4 4 3 4 4 4 4 5 3 4 5 4 3 4 5 5 4 4 4 4 4 1 3 3 4 4 3 5 5 4 4 qXrXuX",
"qXrXuX4 3 3 4 4 5 5 4 5 3 3 4 3 3 5 5 4 1 4 4 4 5 5 4 4 3 5 3 4 4 4 4 5 5 5 4 4 5 5 4 4 4 5 4 5 4 5 4 5 4 3 4 5 5 5 4 4 4 qXrXuX",
"qXrXuX4 4 5 3 3 4 4 5 4 4 4 5 3 5 4 3 5 3 4 4 4 3 4 3 4 4 4 5 5 4 4 4 4 4 4 3 3 4 4 5 4 4 3 3 3 4 4 3 3 4 3 5 4 4 5 3 4 3 qXrXuX",
"qXrXuXqXqXqXqXqXqXqXqXqXqXqXqXqXqXqXqXqXqXqXqXqXqXqXqXqXqXqXqXqXqXqXqXqXqXqXqXqXqXqXqXqXqXqXqXqXqXqXqXqXqXqXqXqXqXqXqXqXqXqXrXuX",
"qX# rXrXrXrXrXrXrXrXrXrXrXrXrXrXrXrXrXrXrXrXrXrXrXrXrXrXrXrXrXrXrXrXrXrXrXrXrXrXrXrXrXrXrXrXrXrXrXrXrXrXrXrXrXrXrXrXrXrXrXrX# uX",
"qXuXuXuXuXuXuXuXuXuXuXuXuXuXuXuXuXuXuXuXuXuXuXuXuXuXuXuXuXuXuXuXuXuXuXuXuXuXuXuXuXuXuXuXuXuXuXuXuXuXuXuXuXuXuXuXuXuXuXuXuXuXuXuX"
};
