/* XPM */
static char *_a05feea2c4f40a6c4043e8c3edb3e83fF4Rcb9yLyA7kvhE[] = {
/* columns rows colors chars-per-pixel */
"64 64 256 2 ",
"   c black",
".  c #0000A8",
"X  c #00A800",
"o  c #00A8A8",
"O  c #A80000",
"+  c #A800A8",
"@  c #A85400",
"#  c gray66",
"$  c gray33",
"%  c #5454FC",
"&  c #54FC54",
"*  c #54FCFC",
"=  c #FC5454",
"-  c #FC54FC",
";  c #FCFC54",
":  c gray99",
">  c #ECECEC",
",  c gainsboro",
"<  c #D0D0D0",
"1  c #C0C0C0",
"2  c #B4B4B4",
"3  c gray66",
"4  c #989898",
"5  c gray55",
"6  c #7C7C7C",
"7  c gray44",
"8  c #646464",
"9  c gray33",
"0  c #484848",
"q  c gray22",
"w  c #2C2C2C",
"e  c #202020",
"r  c #FC0000",
"t  c #EC0000",
"y  c #E00000",
"u  c #D40000",
"i  c #C80000",
"p  c #BC0000",
"a  c #B00000",
"s  c #A40000",
"d  c #980000",
"f  c #880000",
"g  c #7C0000",
"h  c #700000",
"j  c #640000",
"k  c #580000",
"l  c #4C0000",
"z  c #400000",
"x  c #FCD8D8",
"c  c #FCB8B8",
"v  c #FC9C9C",
"b  c #FC7C7C",
"n  c #FC5C5C",
"m  c #FC4040",
"M  c #FC2020",
"N  c #FC0000",
"B  c #FCA85C",
"V  c #FC9840",
"C  c #FC8820",
"Z  c #FC7800",
"A  c #E46C00",
"S  c #CC6000",
"D  c #B45400",
"F  c #9C4C00",
"G  c #FCFCD8",
"H  c #FCFCB8",
"J  c #FCFC9C",
"K  c #FCFC7C",
"L  c #FCF85C",
"P  c #FCF440",
"I  c #FCF420",
"U  c #FCF400",
"Y  c #E4D800",
"T  c #CCC400",
"R  c #B4AC00",
"E  c #9C9C00",
"W  c #848400",
"Q  c #706C00",
"!  c #585400",
"~  c #404000",
"^  c #D0FC5C",
"/  c #C4FC40",
"(  c #B4FC20",
")  c #A0FC00",
"_  c #90E400",
"`  c #80CC00",
"'  c #74B400",
"]  c #609C00",
"[  c #D8FCD8",
"{  c #BCFCB8",
"}  c #9CFC9C",
"|  c #80FC7C",
" . c #60FC5C",
".. c #40FC40",
"X. c #20FC20",
"o. c #00FC00",
"O. c #00FC00",
"+. c #00EC00",
"@. c #00E000",
"#. c #00D400",
"$. c #04C800",
"%. c #04BC00",
"&. c #04B000",
"*. c #04A400",
"=. c #049800",
"-. c #048800",
";. c #047C00",
":. c #047000",
">. c #046400",
",. c #045800",
"<. c #044C00",
"1. c #044000",
"2. c #D8FCFC",
"3. c #B8FCFC",
"4. c #9CFCFC",
"5. c #7CFCF8",
"6. c #5CFCFC",
"7. c #40FCFC",
"8. c #20FCFC",
"9. c #00FCFC",
"0. c #00E4E4",
"q. c #00CCCC",
"w. c #00B4B4",
"e. c #009C9C",
"r. c #008484",
"t. c #007070",
"y. c #005858",
"u. c #004040",
"i. c #5CBCFC",
"p. c #40B0FC",
"a. c #20A8FC",
"s. c #009CFC",
"d. c #008CE4",
"f. c #007CCC",
"g. c #006CB4",
"h. c #005C9C",
"j. c #D8D8FC",
"k. c #B8BCFC",
"l. c #9C9CFC",
"z. c #7C80FC",
"x. c #5C60FC",
"c. c #4040FC",
"v. c #2024FC",
"b. c #0004FC",
"n. c #0000FC",
"m. c #0000EC",
"M. c #0000E0",
"N. c #0000D4",
"B. c #0000C8",
"V. c #0000BC",
"C. c #0000B0",
"Z. c #0000A4",
"A. c #000098",
"S. c #000088",
"D. c #00007C",
"F. c #000070",
"G. c #000064",
"H. c #000058",
"J. c #00004C",
"K. c #000040",
"L. c #282828",
"P. c #FCE034",
"I. c #FCD424",
"U. c #FCCC18",
"Y. c #FCC008",
"T. c #FCB400",
"R. c #003800",
"E. c #002800",
"W. c #9800E4",
"Q. c #8000CC",
"!. c #7400B4",
"~. c #60009C",
"^. c #500084",
"/. c #440070",
"(. c #340058",
"). c #280040",
"_. c #FCD8FC",
"`. c #FCB8FC",
"'. c #FC9CFC",
"]. c #FC7CFC",
"[. c #FC5CFC",
"{. c #FC40FC",
"}. c #FC20FC",
"|. c #FC00FC",
" X c #E000E4",
".X c #C800CC",
"XX c #B400B4",
"oX c #9C009C",
"OX c #840084",
"+X c #6C0070",
"@X c #580058",
"#X c #400040",
"$X c #FCE8DC",
"%X c #FCE0D0",
"&X c #FCD8C4",
"*X c #FCD4BC",
"=X c #FCCCB0",
"-X c #FCC4A4",
";X c #FCBC9C",
":X c #FCB890",
">X c #FCB080",
",X c #FCA470",
"<X c #FC9C60",
"1X c #F0945C",
"2X c #E88C58",
"3X c #DC8854",
"4X c #D08050",
"5X c #C87C4C",
"6X c #BC7848",
"7X c #B47044",
"8X c #A86840",
"9X c #A0643C",
"0X c #9C6038",
"qX c #905C34",
"wX c #885830",
"eX c #80502C",
"rX c #744C28",
"tX c #6C4824",
"yX c #5C4020",
"uX c #543C1C",
"iX c #483818",
"pX c #403018",
"aX c #382C14",
"sX c #28200C",
"dX c #600064",
"fX c #006464",
"gX c #006060",
"hX c #00001C",
"jX c #00002C",
"kX c #302410",
"lX c #480048",
"zX c #500050",
"xX c #000034",
"cX c gray11",
"vX c #4C4C4C",
"bX c gray36",
"nX c gray25",
"mX c gray19",
"MX c #343434",
"NX c #D8F4F4",
"BX c #B8E8E8",
"VX c #9CDCDC",
"CX c #74C8C8",
"ZX c #48C0C0",
"AX c #20B4B4",
"SX c #20B0B0",
"DX c #00A4A4",
"FX c #009898",
"GX c #008C8C",
"HX c #008484",
"JX c #007C7C",
"KX c #007878",
"LX c #007474",
"PX c #007070",
"IX c #006C6C",
"UX c #980088",
/* pixels */
"                                                                                                                                ",
"eXeXeXeXeXeXeXeXeXeXeXeXeXeXeXeXeXeXeXeXeXeXeXeXeXeXeXeXeXeXeXeXeXeXeXeXeXeXeXeXeXeXeXeXeXeXeXeXeXeXeXeXeXeXeXeXeXeXeXeXeXeXeXeX",
"eXuXuXkXkXkXuXuXkXkXuXuXuXuXkXuXkXkXkXkXuXuXuXuXkXkXuXuXkXuXkXuXkXkXuXkXuXkXkXuXkXkXuXuXuXuXkXkXuXuXkXuXuXkXkXuXuXkXkXuXuXkXkXsX",
"eXpX4 pXpXtXpXpXpXpXtXpXtXtXpXpXpXpXpXpXpXpXtXpXpXtXpXpXtXpXtXtXpXtXpXtXtXtXpXpXtXpXpXpXpXtXtXtXtXtXpXpXpXpXtXpXtXtXtXtXpX4 tXsX",
"eXuXuXuXuXuXkXuXuXkXkXkXuXuXkXuXkXkXkXuXkXkXuXkXuXuXkXuXuXkXkXuXuXuXkXuXkXuXkXuXuXkXuXkXuXuXkXkXuXuXkXkXkXkXuXkXuXkXkXuXkXkXkXsX",
"eXpXtXpXtXpXpXpXpXtXtXtXtXtXtXpXpXtXtXpXpXtXpXpXpXtXtXpXpXpXpXpXtXpXpXtXtXpXpXpXtXtXtXpXpXtXtXtXpXpXtXtXpXpXtXpXtXpXpXtXpXpXpXsX",
"eXkXuXkXuXuXkXkXuXuXkXuXkXuXuXuXkXuXuXkXuXkXkXuXuXuXkXkXuXkXuXuXkXuXkXuXuXkXkXuXkXkXkXkXkXuXkXkXuXkXkXkXuXuXuXkXuXkXkXkXuXkXkXsX",
"eXpXpXtXtXtXtX0 $ 0 vXvXvXvX0 0 q q cX          cXe L.mXq nX0 q $ $ vX0 nX0 vX$ 0 0 0 0 0 vX0 q 0 nX0 0 vXq nX$ nXpXtXpXtXpXtXsX",
"eXkXkXuXkXkXkXbXbX$ 0 $ vX0 0 0 e cX      mXcX      e e cXw q 0 8 $ vXvX0 vX0 vX0 0 vX0 vXvX0 nXnXnX0 0 $ 0 0 $ nXkXkXkXuXkXuXsX",
"eXtXtXpXpXpXpXbX$ $ $ $ $ vX0 $ cX      mX6 vXcX      cX      0 8 bX$ vXvXvXvX$ vX$ vXvXvXvXvXnX0 nX0 vX$ 0 vX$ 0 tXpXpXpXtXpXsX",
"eXkXkXuXuXuXkX$ $ $ $ $ $ $ $ q       cXbX4 mXcX    e         e bXbXbXvX$ 0 $ $ $ $ $ vXvXvX$ 0 vX0 vXvX$ vX0 $ 0 kXkXkXkXkXkXsX",
"eXpXpXtXtXtXtX$ $ $ $ $ $ $ vXcX      cX8 7 L.cX    cX    cXe cXvX0 bX$ bX$ $ $ $ $ vXvX0 $ $ vX0 $ vXvX0 $ 0 8 $ tXpXtXpXpXtXsX",
"eXuX4 uXkXkXuX$ bX$ $ $ $ $ 0         cX6 vXL.            e   cXvXbXbXbXbX$ bX$ $ $ $ $ $ $ $ $ $ $ $ $ 0 $ $ bXvXkXkXuXkX4 uXsX",
"eXtXtXpXpXpXtX$ $ $ $ $ $ nXL.        w 6 L.      cX  cXcXcXcXe bX8 bXbXbXbXbX$ bXbX$ bX$ $ $ bX$ $ $ $ $ bX$ 7 0 tXtXpXpXpXpXsX",
"eXsXsXsXsXsXsXvXbXbXvX$ vXe   cX    cXcXw   cX      cXe   cX8 mXbX$ $ 8 8 8 bX$ bXbXbXbX$ $ $ 8 $ $ $ $ $ bX$ 7 vXsXsXsXsXsXsXsX",
"              bXvX7 8 vXcX    cX  mX8 0 cXcX  cXcXcX  cX  L.6 L.$ $ 8 $ 8 7 bXbX$ bX8 8 $ $ 8 $ bXbXbX$ bX8 bX8 $               ",
"              6 7 7 7 vXL.  cX  cX$ 6 $ q cXcXcX  cXcXcX  cXe mX7 7 7 7 7 7 7 7 8 7 7 7 7 7 7 8 7 7 8 7 7 7 7 7 8               ",
"eXeXeXeXeXeXeX5 6 5 5 # 4 $ e cXvX8 7 nXcX            cX  cXcXvX5 5 6 5 6 6 5 6 6 6 6 6 6 6 6 6 7 6 7 6 6 6 7 6 8 eXeXeXeXeXeXeX",
"kXuXkXuXkXuXkX4 # # 5 # # # 5 cX  cXw vXnXcX        cXcX  cXcXvX4 4 5 5 4 5 5 5 5 6 5 6 6 6 5 6 6 6 6 6 5 6 6 5 7 kXkXkXuXuXkXuX",
"pXtXtXtXpXpXpX# 4 5 5 # 5 # 7         e     cXcXe     cX  L.0 7 4 4 5 5 5 5 5 5 5 6 5 5 6 6 5 5 5 6 5 5 5 5 5 5 7 tXtXpXtXpXpXpX",
"kXkXkXuXkXuXkX4 4 5 5 5 # # 8 0 7 6 q cX        cX    cX  bX5 4 4 5 4 5 5 5 5 5 5 5 5 5 5 5 4 5 5 6 5 5 5 5 4 5 7 kXuXkXkXkXkXuX",
"tXtXtXpXtXpXtX5 4 5 5 # 2 7 q 5 # 1 < 5 0 cX  cX    cX  cX6 # # 4 5 4 5 5 5 4 5 4 4 5 5 4 4 4 5 5 5 5 5 5 4 4 5 5 pXpXtXpXpXtXpX",
"kXkXuXuXkXkXkX4 5 # # # $       cXvX4 < 1 6 0 e e q 7 8 vX# 5 4 4 4 5 5 4 5 5 4 # # 4 4 4 4 5 5 5 5 5 5 5 5 4 4 6 uXkXkXkXuXkXuX",
"pXpXtXpXtXpXtX5 5 5 # 6 cX    cX    cXq # # # 7 MX0 7 $ 6 # # # 4 4 # 4 4 4 # # # # # # # # 4 4 # 5 4 4 # # # # 6 pXtXtXtXtXpXpX",
"kXkXkXkXkXkXuX# 4 4 # nXcXe   cXcX      cX6 # 6 e $ $ 0 # # # # # 4 # # # # # # # # # # # # # # # # # # # # # 5 8 uXkXkXkXuXkXkX",
"pXtXtXpXtXtXpX5 # 6 cX  cXcXL.mX0 $ q   cX  MX$ MXe 0 # # 4 # # # 4 4 # # 4 # 4 # # # # # # # # # # 4 4 1 4 0 q mXtXpXpXpXpXpXtX",
"uXuXuXuXuXkXuX# 7 cXcXcXcX  cXvX5 e q q MXcXcXcXcXMX5 # # # # # # 4 4 # # 4 # # # # 2 2 # # 1 2 2 1 1 1 4 0 cXcXe uXkXkXkXkXuXkX",
"tXpXpXpXtXpXtX6 cXe cXcXcX  cXcX  cX0 cXmXmXcX7 0 # < # # 2 # # # # # # # # # # # 2 2 2 # # 2 # 1 2 # 2 8 cXcXcXe pXtXtXtXtXpXtX",
"uXkXkXkXuXuXkXcXmXcXcX  cXcXmXnXmXq 8 cXe 0 q 7 5 7 2 1 2 # # # # # # # # # # # # # 2 2 # 2 2 1 2 2 6 w cXcX  L.cXkXkXuXuXkXkXkX",
"pXtXtXpXtXpXtXL.cXcXcXcXcX  cXcX  cXcXe e 7 $ $ 8 7 # # 2 2 # # # # # # # # # # # 2 2 1 1 1 1 1 4 vXw nXw L.w nXw tXpXtXpXtXpXpX",
"sXsXsXsXsXsXsXcXcXcXcXcX  cXcX  cX  cX  e 8 5 q MX0 2 2 2 # 1 # # # # # # # # # 2 # 2 2 2 2 2 5 6 vXnXnXL.L.nXw w sXsXsXsXsXsXsX",
"              cXcXcXcXcXcXcXcX  cXcXe q cXcX$ # q mX1 # 2 2 2 2 4 # 2 # # # # # 1 # 2 # 2 2 # 2 # 1 2 1 5 w e cXMX              ",
"              cXcXcXcXcXcXe mX$ vXq e cXmXL.cXvX6 e $ 2 2 2 # # 2 2 4 # 2 # # # 2 # # # 2 2 # # # # 2 4 nXe w 8 bX              ",
"eXeXeXeXeXeXeXcXcXcXcXcXcXe e e e q $ $ mXcX  cXvX8 cX5 2 4 1 2 # 2 1 # # 2 # # # # 2 2 2 # 2 # 2 # 6 nXL.cX8 w e eXeXeXeXeXeXeX",
"eXkXuXuXuXkXkXcXe cXcXcXcXcXcXcXcXcX  cX8 8 cX  cX0 mXw # # # 1 # 2 2 # # 1 1 2 2 # 2 2 2 2 2 # 5 w   cXcX  L.e cXuXkXuXuXuXkXsX",
"eXpX4 tXpXpXpXe cXcXcXe cXcXcXe L.nX7 mXcX7 e   cXcXq   5 1 2 # 1 1 # 1 1 # 2 2 1 2 # # 2 2 5 q e q 0 mXvXvXvXbX$ pXtXtXpX4 pXsX",
"eXuXkXuXuXkXuXe cXcXcXcXcXcXcXcXcXcXcX8 $ mXvX    mXq e vX2 # # # # 4 # # # # # 4 5 5 6 8 8 $ 8 8 7 MXw bX$ 7 vX0 kXuXkXuXkXkXsX",
"eXtXtXtXtXtXtXe cXcXcXcXcXcXe e nXw e cX$ nX$     cX7 mXq $ 0 0 cXcXL.e w q q q L.L.w e cXe cXq 8 w cXcXq bXbXvXq tXpXpXtXtXpXsX",
"eXkXkXkXuXkXuXcXcXcXcXcXcXcXmXnX$ 7 8 8 w mXe       6 q $ cXcX0 $ 8 7 5 4 7 bX5 # 2 5 8 $ vXe cX0 e cXcXe e L.cXcXuXuXuXuXkXuXsX",
"eXpXpXpXtXpXpXcXcXcXcXcXcXcXcXcXq vXbXvX7 cXmXcX    w MX0 e $ 6 5 6 6 8 L.cX7 5 # # 2 # 8 bX7 8 7 8 nXcXcXcXcXe cXtXpXpXtXtXpXsX",
"eXuXuXkXkXuXuXcXcXcXcXcXcXcXcXcXcXcX$ nXvXmXcXcX  L.7 7 7 w mX7 $ 8 $ cX    cX$ 6 5 # # # 0 q $ MX8 6 8 q e   e cXuXkXkXkXuXkXsX",
"eXpXtXpXtXpXpXcXcXcXcXcXcXcXcXe cXcXcX$ q L.cX    0 7 8 7 L.cXnXcX        cXcXcXbX6 cXmX8 cXcXnXe cXw vX7 8 0   cXpXtXtXtXtXtXsX",
"eXkXkXuXkXuXkXe e cXcXcX  cXcXmX8 5 8 7 7 e   cX  q $ 7 6 cX  cX            mX  cXe cX  q vXbX5 7 cX  e L.e cX  cXuXuXkXkXuXuXsX",
"eXtXtXpXtXtXpXcXcXcXcXcXcXcXL.nXcX  cXcXvXcX      mXq 7 $   cXcXcX0 7 bXL.cX      nX6 8 vXnX5 7 $ cXw 8 7 8 7 5 7 tXpXpXtXtXtXsX",
"eXuX4 uXuXkXkXe cXcXcXcX    cX  cXmXe mXnXcX      e cX$ q cXe e cXq 8 6 5 5 7 8 8 bX5 4 8 5 7 w MX5 7 5 7 7 8 8 8 kXkXuXuX4 kXsX",
"eXpXpXpXtXpXpXcXcXcXcXcX  cXcXcXe mX6 6 cX6 L.nX      8 5 7 0 e e cXcXcXw mXq vX8 nXvXq L.cXmX8 7 7 5 bXbXw q 5 5 tXpXpXtXpXtXsX",
"eXsXsXsXsXsXsXe cXcX    cXcX  cXL.6 vXcXmX5 w 5 cX        cX  7 6 q w e cXcX    cXcXcX    L.vXMX7 7 7 8 e q 7 0 e sXsXsXsXsXsXsX",
"              cX  cX1 < < 1     < cX  cX8 8 e 7 0 L.  mXcXMX7 < 6 q e 1 w e q 8 7 0 w cXcXMXvX1 bX7 vXcX  q                     ",
"                  < cX    cX1 cX1   cX$ $   0 q 7 $ w # < < 5 $ cXcX  <   cXcXw q nXw   cXe nX2 cXe         cXcX                ",
"eXeXeXeXeXeXeXcX  1 cX        1 1 < L.nX1 2 1 e 7 2 2 1 2 2 7   1 <   1     < < 1 cXcX<   1 1 1 1     1 1 1 cX    eXeXeXeXeXeXeX",
"kXuXkXkXuXkXuX  cX  < <         1   cX2   $ w 2 w 1   cX1 1 4 2   cX1 <   1     cX1   1 <   mX2   cX1       2 q mXuXuXuXkXkXuXkX",
"tXtXpXpXpXtXpX    cX  cX1 2     <       1 1 1 1 cX1     2 1 1 1     L.1     1 1 1 1 7 <   cXcX<     1 < < 1 <   cXpXpXpXtXtXpXtX",
"uXuXkXkXuXkXkX            cX1   1     1 cX  cX2 cX1 cX  # 2 # #     cX1   < q 2 5 1 e 1   cXnX2 cX  1           cXkXkXkXuXuXuXuX",
"tXtXtXpXtXtXtX    2   cX    2   <     1   cX2 1 cX1 cXcXq 1 e 1     1 <   2 7 6 # 1 0 1     L.1   cX# mX$ q 1 cXcXtXpXtXtXpXpXpX",
"uXuXkXkXkXkXuXcX    < 2 1 1 cXcX2 1     1 1 cX1 cX1     cX1   nX1 1 nX1 cXcX1 1 w 1 q 1   e cX1 1 cXq 2 2 1 7 7 7 uXuXuXkXuXuXuX",
"tXpXpXpXtXtXpXcXcX      cXcXcX  cX  cX        cXcX      e mXnXL.    7 cXcX  cXw L.nXnXe     e L.q q w e w MXvX7 bXpXtXpXtXtXtXtX",
"kXkXuXkXuXkXuX          cXcXcXcXcXcXcX          cX  cXcX0 mXcX  cXcXbXcXcXcX  q w w w e cX  cXe cXcXcXcXw q q $ q uXkXkXkXuXkXkX",
"pXpXpXpXtXpXtXpXpXtXtXpXtXpXtXtXpXpXpXpXpXpXpXtXtXtXpXtXtXpXtXsXeXtXpXtXtXtXtXtXpXtXtXtXtXtXpXtXpXtXpXtXtXpXpXtXpXtXpXpXtXtXpXtX",
"uXkXuXuXkXkXuXuXuXkXuXuXuXkXkXuXuXuXkXkXuXuXuXkXuXkXkXkXkXkXuXsXeXkXuXkXuXuXuXkXuXuXuXkXkXuXuXkXuXuXkXkXuXkXuXuXkXkXkXuXkXuXuXuX",
"pXpXpXtXpXtXtXtXpXtXpXpXpXpXpXpXpXpXtXpXtXtXtXpXtXpXpXtXtXpXpXsXeXpXpXpXpXtXpXtXtXtXtXpXpXtXtXpXpXtXtXtXpXtXtXpXpXtXpXtXpXpXtXtX",
"kXuXuXuXuXuXkXkXuXkXuXuXkXkXuXuXuXuXuXuXkXkXkXuXkXuXuXkXuX4 uXsXeXkX4 kXkXuXkXuXkXkXuXuXkXkXuXkXkXuXkXkXuXuXuXuXkXkXuXkXkXkXuXuX",
"pXtXpXpXtXtXpXtXpXpXpXpXtXpXpXpXtXpXtXpXtXpXpXpXpXpXpXtXpXtXtXsXeXtXtXtXtXpXtXtXtXtXpXtXpXtXtXtXtXpXtXtXpXtXtXpXtXtXpXpXpXtXpXtX",
"sXsXsXsXsXsXsXsXsXsXsXsXsXsXsXsXsXsXsXsXsXsXsXsXsXsXsXsXsXsXsXsXeXsXsXsXsXsXsXsXsXsXsXsXsXsXsXsXsXsXsXsXsXsXsXsXsXsXsXsXsXsXsXsX",
"                                                                                                                                "
};
