/* XPM */
static char *_e7943d90d6444fdb3a4ee3b844b1542SFZ6ksoQseuuMP7L[] = {
/* columns rows colors chars-per-pixel */
"11 11 2 1 ",
"  c black",
". c green",
/* pixels */
"...........",
"...........",
"...........",
"..   .   ..",
".. ... . ..",
"..   .   ..",
".. ... . ..",
"..   . . ..",
"...........",
"...........",
"..........."
};
